<?xml version="1.0" standalone="no"?>
<!DOCTYPE svg PUBLIC "-//W3C//DTD SVG 1.1//EN" "http://www.w3.org/Graphics/SVG/1.1/DTD/svg11.dtd" >
<svg>
<metadata>
Created by FontForge 20090914 at Mon Jul  9 10:46:48 2018
 By www-data
Copyright (c) 2017, Ceo Haekal (Graphicfresh - Sameeh Media)
</metadata>
<defs>
<font id="South-Korea" horiz-adv-x="790" >
  <font-face 
    font-family="South-Korea"
    font-weight="100"
    font-stretch="normal"
    units-per-em="1000"
    panose-1="2 0 5 3 0 0 0 0 0 0"
    ascent="800"
    descent="-200"
    x-height="720"
    cap-height="720"
    bbox="33 -188.063 1068 1004"
    underline-thickness="50"
    underline-position="-100"
    unicode-range="U+0020-U+20AC"
  />
<missing-glyph horiz-adv-x="364" 
d="M33 0v666h265v-666h-265zM66 33h199v600h-199v-600z" />
    <glyph glyph-name=".notdef" horiz-adv-x="364" 
d="M33 0v666h265v-666h-265zM66 33h199v600h-199v-600z" />
    <glyph glyph-name="space" unicode=" " horiz-adv-x="400" 
 />
    <glyph glyph-name="exclam" unicode="!" horiz-adv-x="200" 
d="M100.5 720c-13 0 -24.334 -4.33203 -34.001 -12.999s-15.167 -19.334 -16.5 -32.001v-10l29 -420c0.666992 -9.33301 3 -16.666 7 -21.999s9 -8 15 -8c5.33301 0 10 2.66699 14 8s6.33301 12.666 7 21.999l28 420v9c-1.33301 13.333 -6.66602 24.333 -15.999 33
s-20.5 13 -33.5 13zM99.999 100.001c-14 0 -25.833 -4.83301 -35.5 -14.5s-14.5 -21.5 -14.5 -35.5s4.83301 -25.833 14.5 -35.5s21.5 -14.5 35.5 -14.5s25.833 4.83301 35.5 14.5s14.5 21.5 14.5 35.5s-4.83301 25.833 -14.5 35.5s-21.5 14.5 -35.5 14.5z" />
    <glyph glyph-name="quotedbl" unicode="&#x22;" horiz-adv-x="250" 
d="M77.5 724c-7 0 -13.167 -3 -18.5 -9s-8.33301 -13.667 -9 -23v-7c0 -52.667 5.66699 -88.667 17 -108c3.33301 -5.33301 6.83301 -8 10.5 -8s7.16699 2.66699 10.5 8c6 11.333 10.667 31 14 59c2 18.667 3 35 3 49v7c-0.666992 8.66699 -3.66699 16.167 -9 22.5
s-11.5 9.5 -18.5 9.5zM172.5 724c-7 0 -13.167 -3 -18.5 -9s-8.33301 -13.667 -9 -23v-7c0 -52.667 5.66699 -88.667 17 -108c3.33301 -5.33301 6.83301 -8 10.5 -8s7.16699 2.66699 10.5 8c6 11.333 10.667 31 14 59c2 18.667 3 35 3 49v7
c-0.666992 8.66699 -3.66699 16.167 -9 22.5s-11.5 9.5 -18.5 9.5z" />
    <glyph glyph-name="numbersign" unicode="#" horiz-adv-x="780" 
d="M278 720l-40 -200h-148v-40h141l-40 -200h-141v-40h133l-47 -240h41l47 240h245l-48 -240h41l47 240h181v40h-173l40 200h173v40h-165l39 200h-41l-39 -200h-245l40 200h-41zM271 480h245l-39 -200h-245z" />
    <glyph glyph-name="dollar" unicode="$" horiz-adv-x="519" 
d="M253 803l0.000976562 -114.997c-24.667 -2 -49.334 -7.66699 -74.001 -17c-32 -14 -58 -33.5 -78 -58.5s-30.667 -53.5 -32 -85.5c-1.33301 -56.667 19.334 -101 62.001 -133c6.66699 -5.33301 13.667 -10.166 21 -14.499s15.833 -8.83301 25.5 -13.5
s17.5 -8.33398 23.5 -11.001s15.167 -6.5 27.5 -11.5s20.5 -8.16699 24.5 -9.5v-281c-53.333 -10.667 -99 -0.333984 -137 30.999c-36 30 -55 72.667 -57 128v1h-9c1.33301 -54.667 19 -98 53 -130c28.667 -28 68.334 -45.667 119.001 -53c10.667 -0.666992 21 -1 31 -1
v-106h40v109c23.333 3.33301 45.666 9.66602 66.999 18.999c32 14 58 33.333 78 58s30.667 53.334 32 86.001c0 73.333 -31.667 130.333 -95 171c-19.333 12 -46.666 26 -81.999 42v269c22 -0.666992 42.667 -6.16699 62 -16.5s35 -24.833 47 -43.5
c14.667 -26 22 -53 22 -81h9c-1.33301 12 -2.33301 24.667 -3 38l-1.5 29.5c-0.333008 6.33301 -1 12.833 -2 19.5s-2.33301 11.667 -4 15s-4.16699 6.66602 -7.5 9.99902c-2.66699 2 -5.33398 3.83301 -8.00098 5.5s-6.5 3.5 -11.5 5.5s-9.5 3.66699 -13.5 5
s-10.333 3.66602 -19 6.99902s-16.334 6 -23.001 8c-14 4.66699 -29 8 -45 10h-1h-1v114h-40zM253.001 672.003l0.00292969 -246.002c-30.667 14 -53.834 28.5 -69.501 43.5s-22.834 34.167 -21.501 57.5c-0.666992 56.667 16.666 98.334 51.999 125.001
c12 8.66699 25 15.334 39 20.001zM293.004 315.001c27.333 -14 48.333 -30.333 63 -49s22 -42.334 22 -71.001c0 -30 -7.83301 -56.167 -23.5 -78.5s-36.167 -39.166 -61.5 -50.499v249z" />
    <glyph glyph-name="percent" unicode="%" horiz-adv-x="618" 
d="M518 720l-468 -720h48l468 720h-48zM150 686c-27.333 0 -50.833 -11.167 -70.5 -33.5s-29.5 -49.5 -29.5 -81.5s9.83301 -59.333 29.5 -82s43.167 -34 70.5 -34s50.833 11.333 70.5 34s29.5 50 29.5 82s-9.83301 59.167 -29.5 81.5s-43.167 33.5 -70.5 33.5zM150 680
c14 0 27.167 -11 39.5 -33s18.5 -47.5 18.5 -76.5s-6.16699 -54.5 -18.5 -76.5s-25.5 -33 -39.5 -33s-27 11 -39 33s-18 47.5 -18 76.5s6 54.5 18 76.5s25 33 39 33zM468 260c-27.333 0 -50.833 -11.333 -70.5 -34s-29.5 -50 -29.5 -82s9.83301 -59.167 29.5 -81.5
s43.167 -33.5 70.5 -33.5s50.833 11.167 70.5 33.5s29.5 49.5 29.5 81.5s-9.83301 59.333 -29.5 82s-43.167 34 -70.5 34zM468 254c14 0 27 -11 39 -33s18 -47.5 18 -76.5s-6 -54.5 -18 -76.5s-25 -33 -39 -33s-27 11 -39 33s-18 47.5 -18 76.5s6 54.5 18 76.5s25 33 39 33z
" />
    <glyph glyph-name="ampersand" unicode="&#x26;" horiz-adv-x="806" 
d="M366 720l-7.99707 0.00195312c-10 -0.666992 -22.667 -3 -38 -7c-49.333 -14 -88.833 -39.5 -118.5 -76.5s-41.834 -77.167 -36.501 -120.5l1 -7c0.666992 -4.66699 1.33398 -8.33398 2.00098 -11.001c4.66699 -32.667 21.667 -73.334 51 -122.001
c-48.667 -8 -89 -28.333 -121 -61s-48 -70.334 -48 -113.001v-10v-9c0.666992 -50 21 -92.833 61 -128.5s88.333 -53.834 145 -54.501h22c81.333 -2.66699 152.666 23 213.999 77c38.667 -28.667 74.5 -49.667 107.5 -63s63.667 -17.333 92 -12s49.833 22.333 64.5 51l-1 9
c-16.667 -12.667 -43.167 -11 -79.5 5s-77.5 42.333 -123.5 79c20.667 32.667 34.667 68.667 42 108c2.66699 18 9 31.333 19 40c12 10.667 33.333 16 64 16v10h-170v-10c36.667 0 59 -3.66699 67 -11c10 -8 13 -23.333 9 -46c-7.33301 -35.333 -21 -68.333 -41 -99
c-40 32.667 -79.333 69.667 -118 111s-71.334 81 -98.001 119c39.333 1.33301 74.166 7.5 104.499 18.5s54.333 25.333 72 43s31.167 36.334 40.5 56.001s14 39.834 14 60.501c0.666992 34 -11.333 65.167 -36 93.5s-58.667 47.5 -102 57.5c-20 4.66699 -37.667 7 -53 7z
M366.003 708.002c4 0 8.33105 -0.332031 12.998 -0.999023c10 -1.33301 20.333 -5 31 -11c20 -12 34.833 -30.833 44.5 -56.5s12.834 -53.167 9.50098 -82.5c-2.66699 -27.333 -9.16699 -53.166 -19.5 -77.499s-26.5 -45 -48.5 -62s-47.333 -24.833 -76 -23.5
c-14 20.667 -26.167 42.5 -36.5 65.5s-16.166 40.833 -17.499 53.5c-1.33301 9.33301 -2.33301 18 -3 26c-2.66699 33.333 1.16602 64.166 11.499 92.499s24.833 49.5 43.5 63.5c14.667 7.33301 28.334 11.666 41.001 12.999h7zM227.001 362.003
c31.333 -48.667 69.832 -98.168 115.499 -148.501s92.167 -93.166 139.5 -128.499c-57.333 -48 -125.666 -73 -204.999 -75h-21c-26.667 2 -50.5 18.833 -71.5 50.5s-32.5 69.5 -34.5 113.5c-0.666992 8.66699 -1 18 -1 28c0 36 7.5 68.833 22.5 98.5s33.5 50.167 55.5 61.5
z" />
    <glyph glyph-name="quotesingle" unicode="'" horiz-adv-x="155" 
d="M77.5 722c-7 0 -13.166 -2.99902 -18.499 -8.99902s-8.33301 -13.333 -9 -22v-7c0 -53.333 5.66699 -89.333 17 -108c3.33301 -6 7 -9 11 -9c3.33301 0 6.66602 3 9.99902 9c6 10.667 10.667 30 14 58c2 19.333 3 35.666 3 48.999v7c-0.666992 9.33301 -3.66699 17 -9 23
s-11.5 9 -18.5 9z" />
    <glyph glyph-name="parenleft" unicode="(" horiz-adv-x="280" 
d="M230 800c-32.667 0 -62.834 -19.667 -90.501 -59s-49.5 -92.833 -65.5 -160.5s-24 -141.167 -24 -220.5s8 -152.833 24 -220.5s37.833 -121.167 65.5 -160.5s57.834 -59 90.501 -59v40c-38.667 0 -71.667 39 -99 117s-41 172.333 -41 283s13.667 205 41 283
s60.333 117 99 117v40z" />
    <glyph glyph-name="parenright" unicode=")" horiz-adv-x="280" 
d="M50 800c32.667 0 62.834 -19.667 90.501 -59s49.5 -92.833 65.5 -160.5s24 -141.167 24 -220.5s-8 -152.833 -24 -220.5s-37.833 -121.167 -65.5 -160.5s-57.834 -59 -90.501 -59v40c38.667 0 71.667 39 99 117s41 172.333 41 283s-13.667 205 -41 283
s-60.333 117 -99 117v40z" />
    <glyph glyph-name="asterisk" unicode="*" horiz-adv-x="282" 
d="M140.5 717c-5 0 -9.33203 -2.16699 -12.999 -6.5s-5.5 -9.5 -5.5 -15.5c-0.666992 -2 -0.666992 -3.66699 0 -5c-0.666992 -13.333 0 -27 2 -41c-12 8.66699 -25 16.667 -39 24c-1.33301 0.666992 -3 1.33398 -5 2.00098c-5.33301 2.66699 -10.833 3.33398 -16.5 2.00098
s-9.66699 -4.33301 -12 -9s-2.33301 -9.5 0 -14.5s6.16602 -9.16699 11.499 -12.5c0.666992 -0.666992 2 -1.33398 4 -2.00098c8.66699 -4.66699 19.334 -9.33398 32.001 -14.001c8 -3.33301 15.333 -5.66602 22 -6.99902c-6 -2.66699 -12.333 -6 -19 -10
c-11.333 -6.66699 -21 -13 -29 -19c-1.33301 -0.666992 -2.66602 -1.66699 -3.99902 -3c-4.66699 -4 -7.66699 -8.66699 -9 -14s-0.5 -10 2.5 -14s7.33301 -6.33301 13 -7s11.167 0.666016 16.5 3.99902c1.33301 1.33301 2.66602 2.33301 3.99902 3
c18.667 14 33.334 27.333 44.001 40c11.333 -13.333 26.666 -27 45.999 -41c1.33301 -1.33301 2.66602 -2.33301 3.99902 -3c5.33301 -3.33301 10.833 -4.83301 16.5 -4.5s10 2.66602 13 6.99902s3.83301 9.16602 2.5 14.499s-4.33301 10 -9 14
c-1.33301 0.666992 -2.66602 1.66699 -3.99902 3c-8 6 -17.667 12.333 -29 19c-7.33301 4 -14.333 7.33301 -21 10c7.33301 2 15.333 4.66699 24 8c12.667 4.66699 23.334 9.33398 32.001 14.001c2 0.666992 3.33301 1.33398 4 2.00098
c5.33301 3.33301 9.16602 7.5 11.499 12.5s2.33301 9.83301 0 14.5s-6.16602 7.66699 -11.499 9s-11 0.666016 -17 -2.00098l-4 -2c-14.667 -7.33301 -28.334 -15.666 -41.001 -24.999c0 2.66699 0.333008 5 1 7c1.33301 13.333 2 25 2 35v5
c-0.666992 6 -2.83398 11.167 -6.50098 15.5s-8 6.5 -13 6.5z" />
    <glyph glyph-name="plus" unicode="+" horiz-adv-x="540" 
d="M250 568v-200h-200v-40h200v-200h40v200h200v40h-200v200h-40z" />
    <glyph glyph-name="comma" unicode="," horiz-adv-x="200" 
d="M100 100c-14 0 -25.833 -4.83398 -35.5 -14.501s-14.5 -21.5 -14.5 -35.5s4.83301 -25.833 14.5 -35.5s21.5 -14.5 35.5 -14.5c15.333 0 28 6 38 18c-2 -18 -7.66699 -31.333 -17 -40c-12.667 -12 -35.667 -18 -69 -18v-10c36 0 61.333 6.33301 76 19
c9.33301 8 15.333 18.333 18 31s4 29.334 4 50.001c0 14 -4.83301 25.833 -14.5 35.5s-21.5 14.5 -35.5 14.5z" />
    <glyph glyph-name="hyphen" unicode="-" horiz-adv-x="460" 
d="M50 384h360v-40h-360v40z" />
    <glyph glyph-name="period" unicode="." horiz-adv-x="200" 
d="M100 100c-14 0 -25.833 -4.83301 -35.5 -14.5s-14.5 -21.5 -14.5 -35.5s4.83301 -25.833 14.5 -35.5s21.5 -14.5 35.5 -14.5s25.833 4.83301 35.5 14.5s14.5 21.5 14.5 35.5s-4.83301 25.833 -14.5 35.5s-21.5 14.5 -35.5 14.5z" />
    <glyph glyph-name="slash" unicode="/" horiz-adv-x="328" 
d="M237 720l-187 -720h41l187 720h-41z" />
    <glyph glyph-name="zero" unicode="0" horiz-adv-x="689" 
d="M330 720c-50.667 0 -97.5 -16 -140.5 -48s-77 -75.667 -102 -131s-37.5 -115.666 -37.5 -180.999s12.5 -125.666 37.5 -180.999s59 -99 102 -131s89.833 -48 140.5 -48s97.5 16 140.5 48s77 75.667 102 131s37.5 115.666 37.5 180.999s-12.5 125.666 -37.5 180.999
s-59 99 -102 131s-89.833 48 -140.5 48zM330 710c36 0 67.667 -15.833 95 -47.5s48 -73.834 62 -126.501s21 -111.334 21 -176.001s-7 -123.334 -21 -176.001s-34.667 -94.834 -62 -126.501s-59 -47.5 -95 -47.5s-67.667 15.833 -95 47.5s-48 73.834 -62 126.501
s-21 111.334 -21 176.001s7 123.334 21 176.001s34.667 94.834 62 126.501s59 47.5 95 47.5z" />
    <glyph glyph-name="one" unicode="1" horiz-adv-x="390" 
d="M209 720l-159 -84l5 -8c32.667 16 53.667 22 63 18c8 -3.33301 12 -17 12 -41v-515c0 -28.667 -3.66699 -48 -11 -58c-10.667 -14.667 -33.667 -22 -69 -22v-10h260v10c-34.667 0 -57.667 7 -69 21c-7.33301 10 -11 29.667 -11 59v595v35h-21z" />
    <glyph glyph-name="two" unicode="2" horiz-adv-x="623" 
d="M271 727c-44 0 -84.333 -9.16992 -121 -27.5029s-65.334 -42.833 -86.001 -73.5c-10.667 -16 -15.167 -33 -13.5 -51s9.5 -32.333 23.5 -43c14.667 -11.333 29.667 -12.666 45 -3.99902c6.66699 4 11.667 10.667 15 20s6 21.333 8 36s4 25.334 6 32.001
c10 31.333 26.333 55.833 49 73.5s47 26.5 73 26.5c32 0 61.833 -16.833 89.5 -50.5s42.834 -73.5 45.501 -119.5c0.666992 -10.667 0.666992 -17.334 0 -20.001c0.666992 -31.333 -8.66602 -64.666 -27.999 -99.999s-43.833 -70 -73.5 -104l-91.5 -100.5
c-31.333 -33 -61.666 -68 -90.999 -105s-50.666 -70.833 -63.999 -101.5l11 -8c45.333 21.333 105.666 26.333 180.999 15c12.667 -2 31 -5.16699 55 -9.5s44.833 -7.66602 62.5 -9.99902s33.834 -3.5 48.501 -3.5c30 0.666992 55.667 7.5 77 20.5s38.333 35.5 51 67.5
l-9 10c-18.667 -7.33301 -39.834 -11.333 -63.501 -12s-44.667 0.5 -63 3.5s-41.5 7.16699 -69.5 12.5s-50 9 -66 11c-54.667 7.33301 -99.667 2.33301 -135 -15c27.333 32 75.166 73.667 143.499 125s115.5 91.333 141.5 120c51.333 56 79 118 83 186v9
c-0.666992 52.667 -23.834 97.5 -69.501 134.5s-100.5 55.5 -164.5 55.5z" />
    <glyph glyph-name="three" unicode="3" horiz-adv-x="585" 
d="M266 725c-39.333 0 -75.5 -7.82715 -108.5 -23.4941s-58.5 -36.5 -76.5 -62.5c-9.33301 -14 -13.333 -28.833 -12 -44.5s8.33301 -28.167 21 -37.5c13.333 -9.33301 26.666 -10.333 39.999 -3c6 3.33301 10.5 9.16602 13.5 17.499s5.5 18.666 7.5 30.999
s3.66699 21.166 5 26.499c9.33301 28 24.166 49.5 44.499 64.5s41.833 22.5 64.5 22.5c28 0 52.833 -14.333 74.5 -43s33.834 -63.334 36.501 -104.001v-25c0 -37.333 -9.66699 -70.333 -29 -99s-42 -45.334 -68 -50.001h-3h-60v-10h50v0h5
c32.667 0 63.167 -17.5 91.5 -52.5s42.5 -75.833 42.5 -122.5c0.666992 -10.667 0.666992 -20.334 0 -29.001c-2.66699 -46 -17.834 -86 -45.501 -120s-57.5 -51 -89.5 -51c-26 0 -50.333 8.83301 -73 26.5s-39 42.5 -49 74.5c-2 6.66699 -4 17.167 -6 31.5
s-4.66699 26.333 -8 36s-8.33301 16.5 -15 20.5c-15.333 8.66699 -30.333 7.33398 -45 -3.99902c-14 -10.667 -21.833 -25 -23.5 -43s2.83301 -35.333 13.5 -52c20.667 -30 49.334 -54.167 86.001 -72.5s77 -27.5 121 -27.5c64 0 118.833 18.5 164.5 55.5
s68.834 81.833 69.501 134.5v20c0 44 -17.333 82.833 -52 116.5s-78.667 55.167 -132 64.5c45.333 9.33301 82.333 28.166 111 56.499s43 60.5 43 96.5v17c0 45.333 -20.5 84 -61.5 116s-90.167 48 -147.5 48z" />
    <glyph glyph-name="four" unicode="4" horiz-adv-x="630" 
d="M50 200v-10h320v-100c0 -28.667 -3.66699 -48 -11 -58c-10.667 -14.667 -33.667 -22 -69 -22v-10h260v10c-34.667 0 -57.667 7 -69 21c-7.33301 10 -11 29.667 -11 59v100h80v10h-80v520h-14zM370 593v-393h-306z" />
    <glyph glyph-name="five" unicode="5" horiz-adv-x="578" 
d="M382 721c-19.333 0 -43.998 -3.50195 -73.998 -10.502s-56.667 -13.833 -80 -20.5s-50.166 -11.167 -80.499 -13.5s-55.5 1.5 -75.5 11.5l-5 -8v-258h10c126 0 214.333 -29.667 265 -89c16 -19.333 27.667 -37.333 35 -54s11.333 -38.667 12 -66
c0 -10.667 -0.333008 -20.667 -1 -30c-2 -47.333 -15.167 -87.833 -39.5 -121.5s-51.5 -50.5 -81.5 -50.5c-25.333 0 -49.333 8.83301 -72 26.5s-38.667 42.834 -48 75.501c-2 6 -4 16.333 -6 31s-4.66699 26.834 -8 36.501s-8.33301 16.5 -15 20.5
c-15.333 8.66699 -30.333 7.33398 -45 -3.99902c-13.333 -10.667 -20.833 -25.167 -22.5 -43.5s2.83301 -35.833 13.5 -52.5c20 -30.667 48 -55.167 84 -73.5s75.667 -27.5 119 -27.5c63.333 0 117.5 18.833 162.5 56.5s67.833 83.167 68.5 136.5v9.5v10.5
c0 34.667 -4.83301 62.334 -14.5 83.001s-24.834 41 -45.501 61c-15.333 14 -34.166 26.167 -56.499 36.5s-43.333 18 -63 23s-44.834 8.66699 -75.501 11s-54.667 3.66602 -72 3.99902s-42 0.5 -74 0.5h-20v223c21.333 -42.667 56.666 -64 105.999 -64
c20.667 -0.666992 46.167 2.66602 76.5 9.99902s57.166 14.666 80.499 21.999s49 12.833 77 16.5s50 1.83398 66 -5.49902c2 2.66699 3.33301 4.66699 4 6c-18.667 53.333 -53.667 80.333 -105 81z" />
    <glyph glyph-name="six" unicode="6" horiz-adv-x="639" 
d="M331 720l-3.99609 -0.00585938c-50.667 -0.666992 -97.167 -17.167 -139.5 -49.5s-75.833 -76 -100.5 -131s-37 -114.833 -37 -179.5c0 -65.333 12.5 -125.666 37.5 -180.999s59 -99 102 -131s89.833 -48 140.5 -48v0c64 1.33301 118.333 22 163 62s67 88 67 144
c0 74.667 -25.667 130.667 -77 168c-28.667 21.333 -62.334 33.666 -101.001 36.999s-78.334 -3.16699 -119.001 -19.5s-77.334 -41.166 -110.001 -74.499c-0.666992 14 -1 28.333 -1 43c0 84 11.667 157.167 35 219.5s55.666 102.5 96.999 120.5
c18 7.33301 34.667 11 50 11c16 0 31.333 -3.66699 46 -11c30 -15.333 50.667 -40.666 62 -75.999c2 -5.33301 3.83301 -14.166 5.5 -26.499s4 -22.666 7 -30.999s7.5 -14.166 13.5 -17.499c14 -7.33301 27.667 -6.33301 41 3c12 9.33301 18.833 21.833 20.5 37.5
s-2.5 30.5 -12.5 44.5c-18 25.333 -43 45.833 -75 61.5s-67.333 23.834 -106 24.501h-5zM316.004 384.994c24 0 45.667 -5.33301 65 -16c24 -13.333 43 -34 57 -62s21.333 -61.667 22 -101c0 -40 -9 -76.833 -27 -110.5s-39.667 -57.834 -65 -72.501
c-22 -10 -41.333 -13.667 -58 -11c-39.333 6.66699 -71.833 30.834 -97.5 72.501s-43.167 95.5 -52.5 161.5c-2.66699 20 -4.66699 40.333 -6 61c54.667 51.333 108.667 77.333 162 78z" />
    <glyph glyph-name="seven" unicode="7" horiz-adv-x="611" 
d="M207 712c-11.333 0 -21.9971 -0.333984 -31.9971 -1.00098c-66.667 -7.33301 -108.334 -41.666 -125.001 -102.999l6 -7c24 12 52.667 18.667 86 20s66 0 98 -4l94.5 -12c31 -4 60.333 -4.33301 88 -1s50.5 12 68.5 26c-13.333 -19.333 -38 -60 -74 -122
s-69.333 -124 -100 -186c-60.667 -122 -93.667 -209.667 -99 -263c-3.33301 -37.333 7.33398 -57 32.001 -59c19.333 0 35.666 19 48.999 57c6 18.667 11.667 38 17 58s10.833 42.667 16.5 68s10.167 44.333 13.5 57c18 71.333 39.167 135.833 63.5 193.5
s65.166 145.167 122.499 262.5l-6 5c-18.667 -8 -41.834 -12.167 -69.501 -12.5s-54 1.5 -79 5.5s-54 8 -87 12s-60.833 6 -83.5 6z" />
    <glyph glyph-name="eight" unicode="8" horiz-adv-x="609" 
d="M290 731c-54 0 -100 -16.167 -138 -48.5s-57 -71.166 -57 -116.499c0 -35.333 14.5 -68.666 43.5 -99.999s63.833 -51.333 104.5 -60c-55.333 -9.33301 -101.333 -32.833 -138 -70.5s-55 -81.167 -55 -130.5c0 -56.667 23.5 -105 70.5 -145s103.5 -60 169.5 -60
s122.5 20 169.5 60s70.5 88.333 70.5 145c0 49.333 -18.333 92.833 -55 130.5s-82.667 61.167 -138 70.5c40.667 8.66699 75.5 28.667 104.5 60s43.5 64.666 43.5 99.999c0 45.333 -19 84.166 -57 116.499s-84 48.5 -138 48.5zM290 722c26 0 48.332 -15.1689 66.999 -45.502
s28 -67.166 28 -110.499c0 -42 -9 -78.167 -27 -108.5s-40 -46.166 -66 -47.499h-1h-1h-1h-1c-25.333 0.666992 -47.166 16.334 -65.499 47.001s-27.5 67 -27.5 109c0 43.333 9.33301 80.166 28 110.499s41 45.5 67 45.5zM289.499 398.998c33.667 0 65.5 -19.5 95.5 -58.5
s45 -84.167 45 -135.5s-15 -96.5 -45 -135.5s-61.833 -58.5 -95.5 -58.5s-65.334 19.5 -95.001 58.5s-44.5 84.167 -44.5 135.5s14.833 96.5 44.5 135.5s61.334 58.5 95.001 58.5z" />
    <glyph glyph-name="nine" unicode="9" horiz-adv-x="639" 
d="M278 0l5.00098 0.00488281c50 0.666992 96.333 17.167 139 49.5s76.334 76 101.001 131s37 114.833 37 179.5c0 65.333 -12.5 125.666 -37.5 180.999s-59 99 -102 131s-89.833 48 -140.5 48v0c-64 -1.33301 -118.333 -22 -163 -62s-67 -88 -67 -144
c-0.666992 -74.667 24.666 -130.667 75.999 -168c29.333 -21.333 63.333 -33.666 102 -36.999s78.334 3.16699 119.001 19.5s77 41.166 109 74.499c0.666992 -14 1 -28.333 1 -43c0 -84 -11.667 -157.167 -35 -219.5s-55.333 -102.5 -96 -120.5
c-18 -7.33301 -34.667 -11 -50 -11c-16 0 -31.333 3.66699 -46 11c-30 15.333 -50.667 40.666 -62 75.999c-2 5.33301 -4 14.166 -6 26.499s-4.33301 22.666 -7 30.999s-7.33398 14.166 -14.001 17.499c-13.333 7.33301 -26.666 6.33301 -39.999 -3
c-12.667 -9.33301 -19.667 -21.833 -21 -37.5s3 -30.5 13 -44.5c11.333 -16.667 26.166 -31.5 44.499 -44.5s39.166 -23.167 62.499 -30.5s48 -11 74 -11h4zM294.001 335.005c-24 0 -45.667 5.33398 -65 16.001c-24 13.333 -43 34 -57 62s-21.333 61.667 -22 101
c0 40 9 76.833 27 110.5s39.667 57.5 65 71.5c22 10.667 41.333 14.667 58 12c38.667 -6.66699 71 -30.834 97 -72.501s43.667 -95.5 53 -161.5c2.66699 -20 4.66699 -40.333 6 -61c-54.667 -51.333 -108.667 -77.333 -162 -78z" />
    <glyph glyph-name="colon" unicode=":" horiz-adv-x="200" 
d="M100 564c-14 0 -25.833 -4.83301 -35.5 -14.5s-14.5 -21.5 -14.5 -35.5s4.83301 -25.833 14.5 -35.5s21.5 -14.5 35.5 -14.5s25.833 4.83301 35.5 14.5s14.5 21.5 14.5 35.5s-4.83301 25.833 -14.5 35.5s-21.5 14.5 -35.5 14.5zM100 284
c-14 0 -25.833 -4.83301 -35.5 -14.5s-14.5 -21.5 -14.5 -35.5s4.83301 -25.833 14.5 -35.5s21.5 -14.5 35.5 -14.5s25.833 4.83301 35.5 14.5s14.5 21.5 14.5 35.5s-4.83301 25.833 -14.5 35.5s-21.5 14.5 -35.5 14.5z" />
    <glyph glyph-name="semicolon" unicode=";" horiz-adv-x="200" 
d="M100 556c-14 0 -25.833 -4.83301 -35.5 -14.5s-14.5 -21.5 -14.5 -35.5s4.83301 -25.833 14.5 -35.5s21.5 -14.5 35.5 -14.5s25.833 4.83301 35.5 14.5s14.5 21.5 14.5 35.5s-4.83301 25.833 -14.5 35.5s-21.5 14.5 -35.5 14.5zM100 276
c-14 0 -25.833 -4.83398 -35.5 -14.501s-14.5 -21.5 -14.5 -35.5s4.83301 -25.833 14.5 -35.5s21.5 -14.5 35.5 -14.5c15.333 0 28 6 38 18c-2 -18 -7.66699 -31.333 -17 -40c-12.667 -12 -35.667 -18 -69 -18v-10c36 0 61.333 6.33301 76 19c9.33301 8 15.333 18.333 18 31
s4 29.334 4 50.001c0 14 -4.83301 25.833 -14.5 35.5s-21.5 14.5 -35.5 14.5z" />
    <glyph glyph-name="less" unicode="&#x3c;" horiz-adv-x="409" 
d="M339 561l-289 -176v-47l289 -176l21 34l-272 165l272 166z" />
    <glyph glyph-name="equal" unicode="=" horiz-adv-x="460" 
d="M50 468v-40h360v40h-360zM50 268v-40h360v40h-360z" />
    <glyph glyph-name="greater" unicode="&#x3e;" horiz-adv-x="409" 
d="M71 556l289 -177v-47l-289 -176l-21 34l271 166l-271 165z" />
    <glyph glyph-name="question" unicode="?" horiz-adv-x="506" 
d="M247 720c-39.333 0 -75.3311 -9.16992 -107.998 -27.5029s-58 -42.833 -76 -73.5c-10 -16.667 -14.333 -34.167 -13 -52.5s8.33301 -32.833 21 -43.5c13.333 -11.333 26.666 -12.666 39.999 -3.99902c6.66699 4 11.334 10.833 14.001 20.5s5 21.834 7 36.501s4 25 6 31
c8.66699 32.667 23.167 57.834 43.5 75.501s42.166 26.5 65.499 26.5c27.333 0 52 -16.833 74 -50.5s34 -74.167 36 -121.5c0.666992 -9.33301 1 -19.333 1 -30c0 -48 -11.333 -89.5 -34 -124.5s-48.334 -52.5 -77.001 -52.5v-10v-140h10v140c56 2.66699 103.333 22 142 58
s58 79 58 129v10.5v9.5c-0.666992 53.333 -21.5 98.833 -62.5 136.5s-90.167 56.5 -147.5 56.5zM251.002 99.9971c-14 0 -25.833 -4.83301 -35.5 -14.5s-14.5 -21.5 -14.5 -35.5s4.83301 -25.833 14.5 -35.5s21.5 -14.5 35.5 -14.5s25.833 4.83301 35.5 14.5
s14.5 21.5 14.5 35.5s-4.83301 25.833 -14.5 35.5s-21.5 14.5 -35.5 14.5z" />
    <glyph glyph-name="at" unicode="@" horiz-adv-x="900" 
d="M450 768c-53.333 0 -104.495 -10.334 -153.495 -31.001s-92.167 -50.334 -129.5 -89.001s-66.166 -83 -86.499 -133s-30.5 -102.333 -30.5 -157s10.167 -107 30.5 -157s49.166 -94.333 86.499 -133s80.5 -68.334 129.5 -89.001s100.167 -31 153.5 -31h400v20h-400
c-50.667 0 -99.167 9.83301 -145.5 29.5s-87.333 47.834 -123 84.501s-63.167 78.834 -82.5 126.501s-29 97.5 -29 149.5c0 108 37.167 200 111.5 276s163.833 114 268.5 114c50.667 0 99.167 -9.83301 145.5 -29.5s87.333 -47.834 123 -84.501
s63.167 -78.834 82.5 -126.501s29 -97.5 29 -149.5c0 -45.333 -9 -90 -27 -134c-15.333 -38 -35.5 -68.667 -60.5 -92s-48.5 -35.333 -70.5 -36c-15.333 0 -27.333 5.83301 -36 17.5s-12.334 28.834 -11.001 51.501l1 298c0 44.667 -18 82.834 -54 114.501
s-80 48.5 -132 50.5c-12.667 0 -23.334 -0.666992 -32.001 -2c-46.667 -6 -81.334 -25.333 -104.001 -58c-6.66699 -10 -9.5 -20.333 -8.5 -31s5.83301 -19.334 14.5 -26.001c9.33301 -6.66699 18.666 -7.33398 27.999 -2.00098c4.66699 2.66699 8 6.83398 10 12.501
s3.66699 12.834 5 21.501s2.66602 14.667 3.99902 18c9.33301 30 27.333 49 54 57c13.333 4.66699 29 3.33398 47 -3.99902c22 -8.66699 40.167 -27 54.5 -55s21.5 -60 21.5 -96v-77c-28 14.667 -57.333 22 -88 22c-53.333 0 -98.833 -16 -136.5 -48s-56.5 -71 -56.5 -117
c0 -37.333 13.167 -70.5 39.5 -99.5s60.166 -48.5 101.499 -58.5c19.333 -4 35.666 -6 48.999 -6c22 -0.666992 41.333 4.33301 58 15c14 9.33301 26 22.666 36 39.999c26.667 -38.667 58 -61 94 -67c25.333 -4.66699 51.333 -0.166992 78 13.5s50.334 33.5 71.001 59.5
s37.5 58.167 50.5 96.5s19.5 78.833 19.5 121.5c0 54.667 -10.167 107 -30.5 157s-49.166 94.333 -86.499 133s-80.5 68.334 -129.5 89.001s-100.167 31 -153.5 31zM462.005 389.999c22.667 -0.666992 46.333 -7.33301 71 -20v-198c-4.66699 -26 -15.167 -46.5 -31.5 -61.5
s-34.833 -22.5 -55.5 -22.5c-24 0 -45 11.167 -63 33.5s-29.667 50.5 -35 84.5c-4 22.667 -3.66699 47 1 73c7.33301 36 21 63.5 41 82.5s44 28.5 72 28.5z" />
    <glyph glyph-name="A" unicode="A" 
d="M391 720l-48 -128.001l-187 -502c-13.333 -30.667 -25.666 -51 -36.999 -61c-14 -12.667 -37 -19 -69 -19v-10h160v10c-31.333 0 -49.333 7 -54 21c-3.33301 8.66699 0 28.334 10 59.001l42 110h282l41 -111c10 -20 12.667 -36.667 8 -50
c-6.66699 -19.333 -26.334 -29 -59.001 -29v-10h260v10c-36 0 -62 9.33301 -78 28c-7.33301 8.66699 -15.333 25.667 -24 51l-236 631h-11zM349 577.999l137 -368h-275z" />
    <glyph glyph-name="B" unicode="B" horiz-adv-x="680" 
d="M50 720v-10c35.333 0 58.333 -7.33301 69 -22c7.33301 -10 11 -29.333 11 -58v-540c0 -28.667 -3.66699 -48 -11 -58c-10.667 -14.667 -33.667 -22 -69 -22v-10h370c58 0 107.5 18 148.5 54s61.5 79.667 61.5 131c0 50 -19.5 92.833 -58.5 128.5
s-86.833 54.5 -143.5 56.5c42.667 12.667 77 34.5 103 65.5s39 65.833 39 104.5c0 50 -20.5 92.5 -61.5 127.5s-90.5 52.5 -148.5 52.5v0h-310zM230 710l105 -0.000976562c30 -1.33301 55.667 -11.5 77 -30.5s36.333 -40.667 45 -65s13 -49.166 13 -74.499
c0 -46.667 -10.667 -86.667 -32 -120s-47.333 -50 -78 -50h-130v260v80zM230 359.999h130.001v0c53.333 0 95 -15 125 -45s45 -73.333 45 -130c0 -64.667 -13.333 -110 -40 -136s-66.334 -39 -119.001 -39h-141v80v270z" />
    <glyph glyph-name="C" unicode="C" horiz-adv-x="715" 
d="M410 720c-65.333 0 -125.666 -16.002 -180.999 -48.002s-99 -75.667 -131 -131s-48 -115.666 -48 -180.999c0 -99.333 35.167 -184.166 105.5 -254.499s155.166 -105.5 254.499 -105.5c38 0 81.167 6.5 129.5 19.5s75.833 19.833 82.5 20.5
c11.333 0.666992 19.666 -2 24.999 -8s8 -16.667 8 -32h10v210h-10c0 -36 -7.16699 -67.333 -21.5 -94s-33.666 -47.5 -57.999 -62.5s-50.333 -26 -78 -33s-56.834 -10.5 -87.501 -10.5c-47.333 0 -90.833 15.667 -130.5 47s-71.167 73.833 -94.5 127.5
s-35 112.167 -35 175.5s11.667 121.833 35 175.5s54.833 96.167 94.5 127.5s83.167 47 130.5 47c30.667 0 59.834 -3.5 87.501 -10.5s53.667 -18 78 -33s43.666 -35.833 57.999 -62.5s21.5 -58 21.5 -94h10v210h-10c0 -15.333 -2.66699 -26 -8 -32
s-13.666 -8.66699 -24.999 -8c-6.66699 0.666992 -34.167 7.5 -82.5 20.5s-91.5 19.5 -129.5 19.5z" />
    <glyph glyph-name="D" unicode="D" horiz-adv-x="780" 
d="M50 720v-9.99805c35.333 0 58.333 -7.33301 69 -22c7.33301 -10 11 -29.333 11 -58v-540c0 -28.667 -3.66699 -48 -11 -58c-10.667 -14.667 -33.667 -22 -69 -22v-10h180h140c99.333 0 184.166 35.167 254.499 105.5s105.5 155.166 105.5 254.499
s-35.167 184.166 -105.5 254.499s-155.166 105.5 -254.499 105.5h-140h-180zM230 710.002h140v0c47.333 0 90.833 -15.667 130.5 -47s71.167 -73.833 94.5 -127.5s35 -112.167 35 -175.5s-11.667 -121.833 -35 -175.5s-54.833 -96.167 -94.5 -127.5s-83.167 -47 -130.5 -47
v0h-140v80v540v80z" />
    <glyph glyph-name="E" unicode="E" horiz-adv-x="688" 
d="M50 720l0.00195312 -10.001c35.333 0 58.333 -7.33301 69 -22c7.33301 -10 11 -29.333 11 -58v-540c0 -28.667 -3.66699 -48 -11 -58c-10.667 -14.667 -33.667 -22 -69 -22v-10h180h368l40 210h-10c-16 -75.333 -38.333 -128.333 -67 -159
c-26 -27.333 -62.333 -41 -109 -41h-222v80v260h159c39.333 0 66.333 -4.66699 81 -14c11.333 -6.66699 19.166 -16.667 23.499 -30s6.5 -32 6.5 -56h10v210h-10c0 -37.333 -5.66699 -62.666 -17 -75.999c-14 -16 -45 -24 -93 -24h-160v270v80h204
c49.333 0 84.666 -12.333 105.999 -37c24 -28 38.667 -82.333 44 -163h10l-12 210h-352h-180z" />
    <glyph glyph-name="F" unicode="F" horiz-adv-x="644" 
d="M50 720l0.00195312 -10.001c35.333 0 58.333 -7.33301 69 -22c7.33301 -10 11 -29.333 11 -58v-540c0 -28.667 -3.66699 -48 -11 -58c-10.667 -14.667 -33.667 -22 -69 -22v-10h260v10c-34.667 0 -57.667 7 -69 21c-7.33301 10 -11 29.667 -11 59v260h159
c39.333 0 66.333 -4.66699 81 -14c11.333 -6.66699 19.166 -16.667 23.499 -30s6.5 -32 6.5 -56h10v210h-10c0 -37.333 -5.66699 -62.666 -17 -75.999c-14 -16 -45 -24 -93 -24h-160v270v80h204c49.333 0 84.666 -12.333 105.999 -37c24 -28 38.667 -82.333 44 -163h10
l-12 210h-352h-180z" />
    <glyph glyph-name="G" unicode="G" horiz-adv-x="816" 
d="M410 720c-65.333 0 -125.667 -16.002 -181 -48.002s-99 -75.667 -131 -131s-48 -115.666 -48 -180.999c0 -99.333 35.167 -184.166 105.5 -254.499s155.166 -105.5 254.499 -105.5c40.667 0 87.334 5 140.001 15s98 15 136 15v240c0 29.333 3.66699 49 11 59
c11.333 14 34.333 21 69 21v10h-80h-100h-80v-10c35.333 0 58.333 -7.33301 69 -22c7.33301 -10 11 -29.333 11 -58v-220c-21.333 -13.333 -48.333 -23.333 -81 -30s-64.334 -10 -95.001 -10c-47.333 0 -90.833 15.667 -130.5 47s-71.167 73.833 -94.5 127.5
s-35 112.167 -35 175.5s11.667 121.833 35 175.5s54.833 96.167 94.5 127.5s83.167 47 130.5 47c30.667 0 59.834 -3.5 87.501 -10.5s53.667 -18 78 -33s43.666 -35.833 57.999 -62.5s21.5 -58 21.5 -94h10v210h-10c0 -15.333 -2.66699 -26 -8 -32
s-13.666 -8.66699 -24.999 -8c-6.66699 0.666992 -34.167 7.5 -82.5 20.5s-91.5 19.5 -129.5 19.5z" />
    <glyph glyph-name="H" unicode="H" horiz-adv-x="780" 
d="M50 720v-10c35.333 0 58.333 -7.33301 69 -22c7.33301 -10 11 -29.333 11 -58v-540c0 -28.667 -3.66699 -48 -11 -58c-10.667 -14.667 -33.667 -22 -69 -22v-10h260v10c-34.667 0 -57.667 7 -69 21c-7.33301 10 -11 29.667 -11 59v260h320v-260
c0 -28.667 -3.66699 -48 -11 -58c-10.667 -14.667 -33.667 -22 -69 -22v-10h260v10c-34.667 0 -57.667 7 -69 21c-7.33301 10 -11 29.667 -11 59v540c0 29.333 3.66699 49 11 59c11.333 14 34.333 21 69 21v10h-260v-10c35.333 0 58.333 -7.33301 69 -22
c7.33301 -10 11 -29.333 11 -58v-270h-320v270c0 29.333 3.66699 49 11 59c11.333 14 34.333 21 69 21v10h-260z" />
    <glyph glyph-name="I" unicode="I" horiz-adv-x="360" 
d="M50 720v-10c35.333 0 58.333 -7.33301 69 -22c7.33301 -10 11 -29.333 11 -58v-540c0 -28.667 -3.66699 -48 -11 -58c-10.667 -14.667 -33.667 -22 -69 -22v-10h260v10c-34.667 0 -57.667 7 -69 21c-7.33301 10 -11 29.667 -11 59v540c0 29.333 3.66699 49 11 59
c11.333 14 34.333 21 69 21v10h-260z" />
    <glyph glyph-name="J" unicode="J" horiz-adv-x="500" 
d="M190 722l0.000976562 -9.99805c35.333 0 58.333 -7.33301 69 -22c7.33301 -10 11 -29.333 11 -58v-480c0 -24.667 -3.33301 -46.667 -10 -66s-14.834 -34.333 -24.501 -45s-19.834 -17.334 -30.501 -20.001c-15.333 -4 -28.333 0 -39 12s-16 31.667 -16 59
c0 13.333 -4.83301 25 -14.5 35s-21.5 15 -35.5 15s-25.833 -5 -35.5 -15s-14.5 -21.667 -14.5 -35c0 -34.667 12.333 -60 37 -76c26.667 -17.333 61.834 -21 105.501 -11s81.5 31 113.5 63c42.667 42 64 92 64 150v414c0 29.333 3.66699 48.666 11 57.999
c11.333 14.667 34.333 22 69 22v10h-260z" />
    <glyph glyph-name="K" unicode="K" horiz-adv-x="785" 
d="M50 720l-0.000976562 -9.99902c35.333 0 58.333 -7.33301 69 -22c7.33301 -10 11 -29.333 11 -58v-540c0 -28.667 -3.66699 -48 -11 -58c-10.667 -14.667 -33.667 -22 -69 -22v-10h260v10c-34.667 0 -57.667 7 -69 21c-7.33301 10 -11 29.667 -11 59v238
c9.33301 8 19.333 11 30 9c12 -2.66699 26 -13 42 -31l226 -238c22.667 -24.667 48.667 -43 78 -55c23.333 -9.33301 46.833 -13.166 70.5 -11.499s43.167 9.5 58.5 23.5c-12 6 -23.5 13 -34.5 21s-19.5 14.5 -25.5 19.5s-15.5 13.833 -28.5 26.5s-21.833 21 -26.5 25
l-296 310l222 231c18 17.333 36.333 29.666 55 36.999c22.667 10 52.334 15 89.001 15v10h-210v-10c29.333 0 49 -4.33301 59 -13c9.33301 -8.66699 8 -20.334 -4 -35.001l-305 -319v287c0 29.333 3.66699 49 11 59c11.333 14 34.333 21 69 21v10h-260z" />
    <glyph glyph-name="L" unicode="L" horiz-adv-x="688" 
d="M50 720l-0.00195312 -10c35.333 0 58.333 -7.33301 69 -22c7.33301 -10 11 -29.333 11 -58v0v-540c0 -28.667 -3.33301 -48 -10 -58c-11.333 -14.667 -34.666 -22 -69.999 -22v-10h180h368l40 210h-10c-15.333 -75.333 -37.666 -128.333 -66.999 -159
c-26 -27.333 -62 -41 -108 -41h-223v80v150v390c0 29.333 3.66699 49 11 59c11.333 14 34.333 21 69 21v10h-260z" />
    <glyph glyph-name="M" unicode="M" horiz-adv-x="878" 
d="M50 720v-10.001c26.667 0 46.667 -4 60 -12c13.333 -7.33301 20 -18.666 20 -33.999v-304v-270c0 -28 -6.66699 -48.333 -20 -61c-12.667 -12.667 -32.667 -19 -60 -19v-10h170v10c-28.667 0 -49 6 -61 18c-12.667 12 -19 32.667 -19 62v230v40v303l256 -663h11l241 676
v-586c0 -28.667 -3.66699 -48 -11 -58c-10.667 -14.667 -33.667 -22 -69 -22v-10h80h180v10c-35.333 0 -58.333 7.33301 -69 22c-7.33301 10 -11 29.333 -11 58v540c0 28.667 3.66699 48 11 58c10.667 14.667 33.667 22 69 22v10h-88h-88l-205 -578l-221 578h-176z" />
    <glyph glyph-name="N" unicode="N" horiz-adv-x="730" 
d="M50 720v-10c27.333 0 47.333 -6.33301 60 -19c13.333 -12.667 20 -33 20 -61v-540c0 -28 -6.66699 -48.333 -20 -61c-12.667 -12.667 -32.667 -19 -60 -19v-10h170v10c-28.667 0 -49 6 -61 18c-12.667 12 -19 32.667 -19 62v562l445 -652h15v630
c0 28 6.66699 48.333 20 61c12.667 12.667 32.667 19 60 19v10h-170v-10c28.667 0 49 -6 61 -18c12.667 -12 19 -32.667 19 -62v-461l-376 551h-164z" />
    <glyph glyph-name="O" unicode="O" horiz-adv-x="739" 
d="M370 720c-58 0 -111.5 -16 -160.5 -48s-87.833 -75.667 -116.5 -131s-43 -115.666 -43 -180.999s14.333 -125.666 43 -180.999s67.5 -99 116.5 -131s102.5 -48 160.5 -48s111.5 16 160.5 48s87.833 75.667 116.5 131s43 115.666 43 180.999s-14.333 125.666 -43 180.999
s-67.5 99 -116.5 131s-102.5 48 -160.5 48zM370 710c41.333 0 78.833 -15.667 112.5 -47s59.834 -73.666 78.501 -126.999s28 -112 28 -176s-9.33301 -122.667 -28 -176s-44.834 -95.666 -78.501 -126.999s-71.167 -47 -112.5 -47s-78.833 15.667 -112.5 47
s-59.834 73.666 -78.501 126.999s-28 112 -28 176s9.33301 122.667 28 176s44.834 95.666 78.501 126.999s71.167 47 112.5 47z" />
    <glyph glyph-name="P" unicode="P" horiz-adv-x="630" 
d="M50 720v-10.001c35.333 0 58.333 -7.33301 69 -22c7.33301 -10 11 -29.333 11 -58v-540c0 -28.667 -3.66699 -48 -11 -58c-10.667 -14.667 -33.667 -22 -69 -22v-10h260v10c-34.667 0 -57.667 7 -69 21c-7.33301 10 -11 29.667 -11 59v244h140
c57.333 0 106.666 19.333 147.999 58s62 83.334 62 134.001s-20.667 95.667 -62 135s-90.666 59 -147.999 59v0h-140h-20h-160zM230 709.999h102c54.667 0 94.667 -21.333 120 -64c18.667 -31.333 28 -71.333 28 -120c0 -49.333 -10.333 -90 -31 -122
c-24.667 -39.333 -63 -59.333 -115 -60h-104v286v80z" />
    <glyph glyph-name="Q" unicode="Q" horiz-adv-x="739" 
d="M370 720c-58 0 -111.5 -16 -160.5 -48s-87.833 -75.667 -116.5 -131s-43 -115.666 -43 -180.999s14.333 -125.666 43 -180.999s67.5 -99 116.5 -131s102.5 -48 160.5 -48s111.5 16 160.5 48s87.833 75.667 116.5 131s43 115.666 43 180.999s-14.333 125.666 -43 180.999
s-67.5 99 -116.5 131s-102.5 48 -160.5 48zM370 710c41.333 0 78.833 -15.667 112.5 -47s59.834 -73.666 78.501 -126.999s28 -112 28 -176s-9.33301 -122.667 -28 -176s-44.834 -95.666 -78.501 -126.999s-71.167 -47 -112.5 -47s-78.833 15.667 -112.5 47
s-59.834 73.666 -78.501 126.999s-28 112 -28 176s9.33301 122.667 28 176s44.834 95.666 78.501 126.999s71.167 47 112.5 47zM341 -27c-27.333 1.33301 -58.001 -5.83496 -92.001 -21.502s-61 -35.167 -81 -58.5l8 -6c20 22.667 49.5 31.334 88.5 26.001
s76.5 -23.333 112.5 -54c37.333 -32.667 82.666 -45 135.999 -37s99 34 137 78l-8 7v0c-19.333 -23.333 -48.666 -32.333 -87.999 -27s-76.666 23.333 -111.999 54c-12 10 -27.833 18.833 -47.5 26.5s-37.5 11.834 -53.5 12.501z" />
    <glyph glyph-name="R" unicode="R" horiz-adv-x="720" 
d="M50 720l0.000976562 -10.001c35.333 0 58.333 -7.33301 69 -22c7.33301 -10 11 -29.333 11 -58v-540c0 -28.667 -3.66699 -48 -11 -58c-10.667 -14.667 -33.667 -22 -69 -22v-10h260v10c-34.667 0 -57.667 7 -69 21c-7.33301 10 -11 29.667 -11 59v244
c23.333 0.666992 39.333 -0.666016 48 -3.99902s16 -9.33301 22 -18l170 -227c19.333 -27.333 42.666 -48.666 69.999 -63.999c23.333 -12.667 46.333 -19.5 69 -20.5s43 4.5 61 16.5c-11.333 7.33301 -22 15.666 -32 24.999s-17.5 16.833 -22.5 22.5l-25 29.5l-23.5 28
l-161 215c49.333 8.66699 90.666 31.167 123.999 67.5s50 76.833 50 121.5c0 50.667 -20.667 95.667 -62 135s-90.666 59 -147.999 59v0h-140h-20h-160zM230.001 709.999h102c54.667 0 94.667 -21.333 120 -64c18.667 -31.333 28 -71.333 28 -120
c0 -49.333 -10.333 -90 -31 -122c-24.667 -39.333 -63 -59.333 -115 -60h-104v286v80z" />
    <glyph glyph-name="S" unicode="S" horiz-adv-x="555" 
d="M443 718c0.666992 -24.667 -1.00098 -37.999 -5.00098 -39.999c-2 -1.33301 -5.33301 -1.33301 -10 0s-13.667 4.83301 -27 10.5s-25.333 10.5 -36 14.5c-15.333 5.33301 -31.666 9 -48.999 11c-6.66699 0 -13 0.333008 -19 1c-36 0 -71.667 -7 -107 -21
c-34.667 -15.333 -62.834 -36.333 -84.501 -63s-33.167 -57.667 -34.5 -93c-1.33301 -61.333 21 -109.333 67 -144c16.667 -12 38.167 -24 64.5 -36s50.333 -22.5 72 -31.5s42.834 -19.667 63.501 -32s37 -28.166 49 -47.499s18 -42.333 18 -69
c0 -40.667 -12.667 -74.5 -38 -101.5s-57 -44.5 -95 -52.5c-26.667 -5.33301 -53.334 -5 -80.001 1s-50 17.333 -70 34c-38.667 32 -59.334 78 -62.001 138v1h-10v-200h10c0 29.333 4.66699 45.666 14 48.999c5.33301 1.33301 14.833 -0.833984 28.5 -6.50098
s32.834 -13 57.501 -22s50.334 -15.167 77.001 -18.5c52 -6 101.667 1.33301 149 22c34.667 15.333 62.834 36.333 84.501 63s33.167 57.667 34.5 93c0 79.333 -34.333 141.333 -103 186c-16.667 10.667 -37.334 21.667 -62.001 33l-64 29c-18 8 -35.667 17.167 -53 27.5
s-30.5 22.5 -39.5 36.5s-13.167 30 -12.5 48c0 62 19 107.333 57 136c31.333 24 67.5 32.167 108.5 24.5s72.833 -28.5 95.5 -62.5c15.333 -28 23 -57.333 23 -88h10l-12 170h-10z" />
    <glyph glyph-name="T" unicode="T" horiz-adv-x="660" 
d="M62 720l-12 -210h10c3.33301 53.333 10.666 94.5 21.999 123.5s26.833 49 46.5 60s46.834 16.5 81.501 16.5h70v-620c0 -28.667 -3.66699 -48 -11 -58c-10.667 -14.667 -33.667 -22 -69 -22v-10h260v10c-34.667 0 -57.667 7 -69 21c-7.33301 10 -11 29.667 -11 59v620h70
c34.667 0 61.834 -5.5 81.501 -16.5s35.167 -31 46.5 -60s18.666 -70.167 21.999 -123.5h10l-12 210h-536z" />
    <glyph glyph-name="U" unicode="U" horiz-adv-x="726" 
d="M676 720v-9.99902c-27.333 0 -47.333 -6.33301 -60 -19c-13.333 -12.667 -20 -33 -20 -61v-440c0 -52.667 -18.5 -97.5 -55.5 -134.5s-81.833 -55.5 -134.5 -55.5h-64h-4c-62.667 0.666992 -114.667 21 -156 61c-34.667 34 -52 73.667 -52 119v450
c0 29.333 -3.66699 49 -11 59c-11.333 14 -34.333 21 -69 21v10h260v-10c-35.333 0 -58.333 -7.33301 -69 -22c-7.33301 -10 -11 -29.333 -11 -58v-450v0c0 -42 9 -79 27 -111c21.333 -38.667 48.333 -58.334 81 -59.001h4h64c50 0 92.5 17.5 127.5 52.5
s52.5 77.5 52.5 127.5v440c0 29.333 -6.33301 50 -19 62c-12 12 -32.333 18 -61 18v10h170z" />
    <glyph glyph-name="V" unicode="V" 
d="M50 720v-9.99902c36 0 62 -9.33301 78 -28c7.33301 -8.66699 15.333 -25.667 24 -51l236 -631h11l48 128l187 502c13.333 30.667 25.666 51 36.999 61c14 12.667 37 19 69 19v10h-160v-10c31.333 0 49.333 -7 54 -21c3.33301 -8.66699 0 -28.334 -10 -59.001l-183 -488
l-182 489c-10 20 -12.667 36.667 -8 50c6.66699 19.333 26.334 29 59.001 29v10h-260z" />
    <glyph glyph-name="W" unicode="W" horiz-adv-x="960" 
d="M50 720l-0.00390625 -10.001c30.667 0 52.334 -5 65.001 -15c4.66699 -4 9 -9.66699 13 -17s6.83301 -13.833 8.5 -19.5s4.16699 -15.5 7.5 -29.5l164 -629h12l164 628l164 -628h12l166 636c8 29.333 17.333 49 28 59c10 10 28.667 15 56 15v10h-146v-10
c28.667 0 46 -3 52 -9c8.66699 -8 8.33398 -29.667 -0.999023 -65l-115 -442l-114 441c-7.33301 23.333 -8 41 -2 53c8 14.667 26.667 22 56 22v10h-250v-10c30.667 0 52.334 -5 65.001 -15c10 -7.33301 18 -22.666 24 -45.999c-1.33301 -4 -2.66602 -8.33301 -3.99902 -13
l-115 -442l-114 441c-7.33301 23.333 -8 41 -2 53c8 14.667 26.667 22 56 22v10h-250z" />
    <glyph glyph-name="X" unicode="X" horiz-adv-x="739" 
d="M50 720l-0.00195312 -10.001c24 0 42 -3.33301 54 -10c12.667 -6.66699 24 -19.334 34 -38.001l192 -327l-177 -268c-14.667 -19.333 -29.667 -33.333 -45 -42c-17.333 -10 -36.666 -15 -57.999 -15v-10h140v10c-23.333 0 -36.666 5.66699 -39.999 17
c-2 8.66699 2.66699 21.334 14 38.001l172 260l148 -252c11.333 -19.333 15.333 -34.333 12 -45c-4 -12 -19 -18 -45 -18v-10h238v10c-24 0 -42 5 -54 15c-3.33301 2 -6.33301 4.5 -9 7.5s-5.5 6.83301 -8.5 11.5s-5.33301 8.5 -7 11.5l-8.5 15l-9 15.5l-196 332l167 253
c9.33301 14 21 24 35 30c12.667 6 34.334 9 65.001 9v10h-160v-10c30 0 48 -3.33301 54 -10c5.33301 -5.33301 3.66602 -14.666 -5.00098 -27.999l-162 -244l-138 236c-10.667 16.667 -13.667 28.667 -9 36c4.66699 6.66699 16.667 10 36 10v10h-230z" />
    <glyph glyph-name="Y" unicode="Y" horiz-adv-x="690" 
d="M50 720v-10.001c26 0 46 -4 60 -12c14 -7.33301 24.333 -19 31 -35l169 -375v-198c0 -28.667 -3.66699 -48 -11 -58c-10.667 -14.667 -33.667 -22 -69 -22v-10h80h100h80v10c-34.667 0 -57.667 7 -69 21c-7.33301 10 -11 29.667 -11 59v266l138 307
c6.66699 16 17.167 27.833 31.5 35.5s34.5 11.5 60.5 11.5v10h-150v-10c23.333 0 39 -4 47 -12c7.33301 -8 7.66602 -19 0.999023 -33l-144 -320l-143 317c-6.66699 18.667 -7 31.334 -1 38.001c6.66699 6.66699 23.334 10 50.001 10v10h-250z" />
    <glyph glyph-name="Z" unicode="Z" horiz-adv-x="560" 
d="M62 720l-12 -210h10c3.33301 53.333 10.666 94.5 21.999 123.5s26.833 49 46.5 60s46.834 16.5 81.501 16.5h200l-360 -700v-10h448l12 210h-10c-3.33301 -53.333 -10.666 -94.5 -21.999 -123.5s-26.833 -49 -46.5 -60s-46.834 -16.5 -81.501 -16.5h-190l350 700v10h-448
z" />
    <glyph glyph-name="bracketleft" unicode="[" horiz-adv-x="260" 
d="M50 799v-880h160v10h-80v860h80v10h-160z" />
    <glyph glyph-name="backslash" unicode="\" horiz-adv-x="328" 
d="M91 720l187 -720h-41l-187 720h41z" />
    <glyph glyph-name="bracketright" unicode="]" horiz-adv-x="260" 
d="M210 798v-880h-160v10h80v860h-80v10h160z" />
    <glyph glyph-name="asciicircum" unicode="^" horiz-adv-x="368" 
d="M161 722l-111 -183l34 -20l100 164l100 -164l34 20l-111 183h-46z" />
    <glyph glyph-name="underscore" unicode="_" horiz-adv-x="540" 
d="M50 40h440v-40h-440v40z" />
    <glyph glyph-name="grave" unicode="`" horiz-adv-x="175" 
d="M67 721c-6.66699 -2.66699 -11.498 -7.66699 -14.498 -15s-3.5 -15.333 -1.5 -24c0.666992 -2.66699 1.66699 -5 3 -7c5.33301 -16.667 13 -35 23 -55s19.333 -33.667 28 -41c5.33301 -4 9.66602 -5.5 12.999 -4.5s5.66602 4.83301 6.99902 11.5c2 12 0 32 -6 60
c-4 18.667 -8.33301 34.334 -13 47.001c-1.33301 2.66699 -2.33301 5 -3 7c-3.33301 8 -8.5 14.167 -15.5 18.5s-13.833 5.16602 -20.5 2.49902z" />
    <glyph glyph-name="a" unicode="a" 
d="M391 720l-48 -128.001l-187 -502c-13.333 -30.667 -25.666 -51 -36.999 -61c-14 -12.667 -37 -19 -69 -19v-10h160v10c-31.333 0 -49.333 7 -54 21c-3.33301 8.66699 0 28.334 10 59.001l42 110h282l41 -111c10 -20 12.667 -36.667 8 -50
c-6.66699 -19.333 -26.334 -29 -59.001 -29v-10h260v10c-36 0 -62 9.33301 -78 28c-7.33301 8.66699 -15.333 25.667 -24 51l-236 631h-11zM349 577.999l137 -368h-275z" />
    <glyph glyph-name="b" unicode="b" horiz-adv-x="680" 
d="M50 720v-10c35.333 0 58.333 -7.33301 69 -22c7.33301 -10 11 -29.333 11 -58v-540c0 -28.667 -3.66699 -48 -11 -58c-10.667 -14.667 -33.667 -22 -69 -22v-10h370c58 0 107.5 18 148.5 54s61.5 79.667 61.5 131c0 50 -19.5 92.833 -58.5 128.5
s-86.833 54.5 -143.5 56.5c42.667 12.667 77 34.5 103 65.5s39 65.833 39 104.5c0 50 -20.5 92.5 -61.5 127.5s-90.5 52.5 -148.5 52.5v0h-310zM230 710l105 -0.000976562c30 -1.33301 55.667 -11.5 77 -30.5s36.333 -40.667 45 -65s13 -49.166 13 -74.499
c0 -46.667 -10.667 -86.667 -32 -120s-47.333 -50 -78 -50h-130v260v80zM230 359.999h130.001v0c53.333 0 95 -15 125 -45s45 -73.333 45 -130c0 -64.667 -13.333 -110 -40 -136s-66.334 -39 -119.001 -39h-141v80v270z" />
    <glyph glyph-name="c" unicode="c" horiz-adv-x="715" 
d="M410 720c-65.333 0 -125.666 -16.002 -180.999 -48.002s-99 -75.667 -131 -131s-48 -115.666 -48 -180.999c0 -99.333 35.167 -184.166 105.5 -254.499s155.166 -105.5 254.499 -105.5c38 0 81.167 6.5 129.5 19.5s75.833 19.833 82.5 20.5
c11.333 0.666992 19.666 -2 24.999 -8s8 -16.667 8 -32h10v210h-10c0 -36 -7.16699 -67.333 -21.5 -94s-33.666 -47.5 -57.999 -62.5s-50.333 -26 -78 -33s-56.834 -10.5 -87.501 -10.5c-47.333 0 -90.833 15.667 -130.5 47s-71.167 73.833 -94.5 127.5
s-35 112.167 -35 175.5s11.667 121.833 35 175.5s54.833 96.167 94.5 127.5s83.167 47 130.5 47c30.667 0 59.834 -3.5 87.501 -10.5s53.667 -18 78 -33s43.666 -35.833 57.999 -62.5s21.5 -58 21.5 -94h10v210h-10c0 -15.333 -2.66699 -26 -8 -32
s-13.666 -8.66699 -24.999 -8c-6.66699 0.666992 -34.167 7.5 -82.5 20.5s-91.5 19.5 -129.5 19.5z" />
    <glyph glyph-name="d" unicode="d" horiz-adv-x="780" 
d="M50 720v-9.99805c35.333 0 58.333 -7.33301 69 -22c7.33301 -10 11 -29.333 11 -58v-540c0 -28.667 -3.66699 -48 -11 -58c-10.667 -14.667 -33.667 -22 -69 -22v-10h180h140c99.333 0 184.166 35.167 254.499 105.5s105.5 155.166 105.5 254.499
s-35.167 184.166 -105.5 254.499s-155.166 105.5 -254.499 105.5h-140h-180zM230 710.002h140v0c47.333 0 90.833 -15.667 130.5 -47s71.167 -73.833 94.5 -127.5s35 -112.167 35 -175.5s-11.667 -121.833 -35 -175.5s-54.833 -96.167 -94.5 -127.5s-83.167 -47 -130.5 -47
v0h-140v80v540v80z" />
    <glyph glyph-name="e" unicode="e" horiz-adv-x="688" 
d="M50 720l0.00195312 -10.001c35.333 0 58.333 -7.33301 69 -22c7.33301 -10 11 -29.333 11 -58v-540c0 -28.667 -3.66699 -48 -11 -58c-10.667 -14.667 -33.667 -22 -69 -22v-10h180h368l40 210h-10c-16 -75.333 -38.333 -128.333 -67 -159
c-26 -27.333 -62.333 -41 -109 -41h-222v80v260h159c39.333 0 66.333 -4.66699 81 -14c11.333 -6.66699 19.166 -16.667 23.499 -30s6.5 -32 6.5 -56h10v210h-10c0 -37.333 -5.66699 -62.666 -17 -75.999c-14 -16 -45 -24 -93 -24h-160v270v80h204
c49.333 0 84.666 -12.333 105.999 -37c24 -28 38.667 -82.333 44 -163h10l-12 210h-352h-180z" />
    <glyph glyph-name="f" unicode="f" horiz-adv-x="644" 
d="M50 720l0.00195312 -10.001c35.333 0 58.333 -7.33301 69 -22c7.33301 -10 11 -29.333 11 -58v-540c0 -28.667 -3.66699 -48 -11 -58c-10.667 -14.667 -33.667 -22 -69 -22v-10h260v10c-34.667 0 -57.667 7 -69 21c-7.33301 10 -11 29.667 -11 59v260h159
c39.333 0 66.333 -4.66699 81 -14c11.333 -6.66699 19.166 -16.667 23.499 -30s6.5 -32 6.5 -56h10v210h-10c0 -37.333 -5.66699 -62.666 -17 -75.999c-14 -16 -45 -24 -93 -24h-160v270v80h204c49.333 0 84.666 -12.333 105.999 -37c24 -28 38.667 -82.333 44 -163h10
l-12 210h-352h-180z" />
    <glyph glyph-name="g" unicode="g" horiz-adv-x="816" 
d="M410 720c-65.333 0 -125.667 -16.002 -181 -48.002s-99 -75.667 -131 -131s-48 -115.666 -48 -180.999c0 -99.333 35.167 -184.166 105.5 -254.499s155.166 -105.5 254.499 -105.5c40.667 0 87.334 5 140.001 15s98 15 136 15v240c0 29.333 3.66699 49 11 59
c11.333 14 34.333 21 69 21v10h-80h-100h-80v-10c35.333 0 58.333 -7.33301 69 -22c7.33301 -10 11 -29.333 11 -58v-220c-21.333 -13.333 -48.333 -23.333 -81 -30s-64.334 -10 -95.001 -10c-47.333 0 -90.833 15.667 -130.5 47s-71.167 73.833 -94.5 127.5
s-35 112.167 -35 175.5s11.667 121.833 35 175.5s54.833 96.167 94.5 127.5s83.167 47 130.5 47c30.667 0 59.834 -3.5 87.501 -10.5s53.667 -18 78 -33s43.666 -35.833 57.999 -62.5s21.5 -58 21.5 -94h10v210h-10c0 -15.333 -2.66699 -26 -8 -32
s-13.666 -8.66699 -24.999 -8c-6.66699 0.666992 -34.167 7.5 -82.5 20.5s-91.5 19.5 -129.5 19.5z" />
    <glyph glyph-name="h" unicode="h" horiz-adv-x="780" 
d="M50 720v-10c35.333 0 58.333 -7.33301 69 -22c7.33301 -10 11 -29.333 11 -58v-540c0 -28.667 -3.66699 -48 -11 -58c-10.667 -14.667 -33.667 -22 -69 -22v-10h260v10c-34.667 0 -57.667 7 -69 21c-7.33301 10 -11 29.667 -11 59v260h320v-260
c0 -28.667 -3.66699 -48 -11 -58c-10.667 -14.667 -33.667 -22 -69 -22v-10h260v10c-34.667 0 -57.667 7 -69 21c-7.33301 10 -11 29.667 -11 59v540c0 29.333 3.66699 49 11 59c11.333 14 34.333 21 69 21v10h-260v-10c35.333 0 58.333 -7.33301 69 -22
c7.33301 -10 11 -29.333 11 -58v-270h-320v270c0 29.333 3.66699 49 11 59c11.333 14 34.333 21 69 21v10h-260z" />
    <glyph glyph-name="i" unicode="i" horiz-adv-x="360" 
d="M50 720v-10c35.333 0 58.333 -7.33301 69 -22c7.33301 -10 11 -29.333 11 -58v-540c0 -28.667 -3.66699 -48 -11 -58c-10.667 -14.667 -33.667 -22 -69 -22v-10h260v10c-34.667 0 -57.667 7 -69 21c-7.33301 10 -11 29.667 -11 59v540c0 29.333 3.66699 49 11 59
c11.333 14 34.333 21 69 21v10h-260z" />
    <glyph glyph-name="j" unicode="j" horiz-adv-x="500" 
d="M190 722l0.000976562 -9.99805c35.333 0 58.333 -7.33301 69 -22c7.33301 -10 11 -29.333 11 -58v-480c0 -24.667 -3.33301 -46.667 -10 -66s-14.834 -34.333 -24.501 -45s-19.834 -17.334 -30.501 -20.001c-15.333 -4 -28.333 0 -39 12s-16 31.667 -16 59
c0 13.333 -4.83301 25 -14.5 35s-21.5 15 -35.5 15s-25.833 -5 -35.5 -15s-14.5 -21.667 -14.5 -35c0 -34.667 12.333 -60 37 -76c26.667 -17.333 61.834 -21 105.501 -11s81.5 31 113.5 63c42.667 42 64 92 64 150v414c0 29.333 3.66699 48.666 11 57.999
c11.333 14.667 34.333 22 69 22v10h-260z" />
    <glyph glyph-name="k" unicode="k" horiz-adv-x="785" 
d="M50 720l-0.000976562 -9.99902c35.333 0 58.333 -7.33301 69 -22c7.33301 -10 11 -29.333 11 -58v-540c0 -28.667 -3.66699 -48 -11 -58c-10.667 -14.667 -33.667 -22 -69 -22v-10h260v10c-34.667 0 -57.667 7 -69 21c-7.33301 10 -11 29.667 -11 59v238
c9.33301 8 19.333 11 30 9c12 -2.66699 26 -13 42 -31l226 -238c22.667 -24.667 48.667 -43 78 -55c23.333 -9.33301 46.833 -13.166 70.5 -11.499s43.167 9.5 58.5 23.5c-12 6 -23.5 13 -34.5 21s-19.5 14.5 -25.5 19.5s-15.5 13.833 -28.5 26.5s-21.833 21 -26.5 25
l-296 310l222 231c18 17.333 36.333 29.666 55 36.999c22.667 10 52.334 15 89.001 15v10h-210v-10c29.333 0 49 -4.33301 59 -13c9.33301 -8.66699 8 -20.334 -4 -35.001l-305 -319v287c0 29.333 3.66699 49 11 59c11.333 14 34.333 21 69 21v10h-260z" />
    <glyph glyph-name="l" unicode="l" horiz-adv-x="688" 
d="M50 720l-0.00195312 -10c35.333 0 58.333 -7.33301 69 -22c7.33301 -10 11 -29.333 11 -58v0v-540c0 -28.667 -3.33301 -48 -10 -58c-11.333 -14.667 -34.666 -22 -69.999 -22v-10h180h368l40 210h-10c-15.333 -75.333 -37.666 -128.333 -66.999 -159
c-26 -27.333 -62 -41 -108 -41h-223v80v150v390c0 29.333 3.66699 49 11 59c11.333 14 34.333 21 69 21v10h-260z" />
    <glyph glyph-name="m" unicode="m" horiz-adv-x="878" 
d="M50 720v-10.001c26.667 0 46.667 -4 60 -12c13.333 -7.33301 20 -18.666 20 -33.999v-304v-270c0 -28 -6.66699 -48.333 -20 -61c-12.667 -12.667 -32.667 -19 -60 -19v-10h170v10c-28.667 0 -49 6 -61 18c-12.667 12 -19 32.667 -19 62v230v40v303l256 -663h11l241 676
v-586c0 -28.667 -3.66699 -48 -11 -58c-10.667 -14.667 -33.667 -22 -69 -22v-10h80h180v10c-35.333 0 -58.333 7.33301 -69 22c-7.33301 10 -11 29.333 -11 58v540c0 28.667 3.66699 48 11 58c10.667 14.667 33.667 22 69 22v10h-88h-88l-205 -578l-221 578h-176z" />
    <glyph glyph-name="n" unicode="n" horiz-adv-x="730" 
d="M50 720v-10c27.333 0 47.333 -6.33301 60 -19c13.333 -12.667 20 -33 20 -61v-540c0 -28 -6.66699 -48.333 -20 -61c-12.667 -12.667 -32.667 -19 -60 -19v-10h170v10c-28.667 0 -49 6 -61 18c-12.667 12 -19 32.667 -19 62v562l445 -652h15v630
c0 28 6.66699 48.333 20 61c12.667 12.667 32.667 19 60 19v10h-170v-10c28.667 0 49 -6 61 -18c12.667 -12 19 -32.667 19 -62v-461l-376 551h-164z" />
    <glyph glyph-name="o" unicode="o" horiz-adv-x="739" 
d="M370 720c-58 0 -111.5 -16 -160.5 -48s-87.833 -75.667 -116.5 -131s-43 -115.666 -43 -180.999s14.333 -125.666 43 -180.999s67.5 -99 116.5 -131s102.5 -48 160.5 -48s111.5 16 160.5 48s87.833 75.667 116.5 131s43 115.666 43 180.999s-14.333 125.666 -43 180.999
s-67.5 99 -116.5 131s-102.5 48 -160.5 48zM370 710c41.333 0 78.833 -15.667 112.5 -47s59.834 -73.666 78.501 -126.999s28 -112 28 -176s-9.33301 -122.667 -28 -176s-44.834 -95.666 -78.501 -126.999s-71.167 -47 -112.5 -47s-78.833 15.667 -112.5 47
s-59.834 73.666 -78.501 126.999s-28 112 -28 176s9.33301 122.667 28 176s44.834 95.666 78.501 126.999s71.167 47 112.5 47z" />
    <glyph glyph-name="p" unicode="p" horiz-adv-x="630" 
d="M50 720v-10.001c35.333 0 58.333 -7.33301 69 -22c7.33301 -10 11 -29.333 11 -58v-540c0 -28.667 -3.66699 -48 -11 -58c-10.667 -14.667 -33.667 -22 -69 -22v-10h260v10c-34.667 0 -57.667 7 -69 21c-7.33301 10 -11 29.667 -11 59v244h140
c57.333 0 106.666 19.333 147.999 58s62 83.334 62 134.001s-20.667 95.667 -62 135s-90.666 59 -147.999 59v0h-140h-20h-160zM230 709.999h102c54.667 0 94.667 -21.333 120 -64c18.667 -31.333 28 -71.333 28 -120c0 -49.333 -10.333 -90 -31 -122
c-24.667 -39.333 -63 -59.333 -115 -60h-104v286v80z" />
    <glyph glyph-name="q" unicode="q" horiz-adv-x="739" 
d="M370 720c-58 0 -111.5 -16 -160.5 -48s-87.833 -75.667 -116.5 -131s-43 -115.666 -43 -180.999s14.333 -125.666 43 -180.999s67.5 -99 116.5 -131s102.5 -48 160.5 -48s111.5 16 160.5 48s87.833 75.667 116.5 131s43 115.666 43 180.999s-14.333 125.666 -43 180.999
s-67.5 99 -116.5 131s-102.5 48 -160.5 48zM370 710c41.333 0 78.833 -15.667 112.5 -47s59.834 -73.666 78.501 -126.999s28 -112 28 -176s-9.33301 -122.667 -28 -176s-44.834 -95.666 -78.501 -126.999s-71.167 -47 -112.5 -47s-78.833 15.667 -112.5 47
s-59.834 73.666 -78.501 126.999s-28 112 -28 176s9.33301 122.667 28 176s44.834 95.666 78.501 126.999s71.167 47 112.5 47zM341 -27c-27.333 1.33301 -58.001 -5.83496 -92.001 -21.502s-61 -35.167 -81 -58.5l8 -6c20 22.667 49.5 31.334 88.5 26.001
s76.5 -23.333 112.5 -54c37.333 -32.667 82.666 -45 135.999 -37s99 34 137 78l-8 7v0c-19.333 -23.333 -48.666 -32.333 -87.999 -27s-76.666 23.333 -111.999 54c-12 10 -27.833 18.833 -47.5 26.5s-37.5 11.834 -53.5 12.501z" />
    <glyph glyph-name="r" unicode="r" horiz-adv-x="720" 
d="M50 720l0.000976562 -10.001c35.333 0 58.333 -7.33301 69 -22c7.33301 -10 11 -29.333 11 -58v-540c0 -28.667 -3.66699 -48 -11 -58c-10.667 -14.667 -33.667 -22 -69 -22v-10h260v10c-34.667 0 -57.667 7 -69 21c-7.33301 10 -11 29.667 -11 59v244
c23.333 0.666992 39.333 -0.666016 48 -3.99902s16 -9.33301 22 -18l170 -227c19.333 -27.333 42.666 -48.666 69.999 -63.999c23.333 -12.667 46.333 -19.5 69 -20.5s43 4.5 61 16.5c-11.333 7.33301 -22 15.666 -32 24.999s-17.5 16.833 -22.5 22.5l-25 29.5l-23.5 28
l-161 215c49.333 8.66699 90.666 31.167 123.999 67.5s50 76.833 50 121.5c0 50.667 -20.667 95.667 -62 135s-90.666 59 -147.999 59v0h-140h-20h-160zM230.001 709.999h102c54.667 0 94.667 -21.333 120 -64c18.667 -31.333 28 -71.333 28 -120
c0 -49.333 -10.333 -90 -31 -122c-24.667 -39.333 -63 -59.333 -115 -60h-104v286v80z" />
    <glyph glyph-name="s" unicode="s" horiz-adv-x="555" 
d="M443 718c0.666992 -24.667 -1.00098 -37.999 -5.00098 -39.999c-2 -1.33301 -5.33301 -1.33301 -10 0s-13.667 4.83301 -27 10.5s-25.333 10.5 -36 14.5c-15.333 5.33301 -31.666 9 -48.999 11c-6.66699 0 -13 0.333008 -19 1c-36 0 -71.667 -7 -107 -21
c-34.667 -15.333 -62.834 -36.333 -84.501 -63s-33.167 -57.667 -34.5 -93c-1.33301 -61.333 21 -109.333 67 -144c16.667 -12 38.167 -24 64.5 -36s50.333 -22.5 72 -31.5s42.834 -19.667 63.501 -32s37 -28.166 49 -47.499s18 -42.333 18 -69
c0 -40.667 -12.667 -74.5 -38 -101.5s-57 -44.5 -95 -52.5c-26.667 -5.33301 -53.334 -5 -80.001 1s-50 17.333 -70 34c-38.667 32 -59.334 78 -62.001 138v1h-10v-200h10c0 29.333 4.66699 45.666 14 48.999c5.33301 1.33301 14.833 -0.833984 28.5 -6.50098
s32.834 -13 57.501 -22s50.334 -15.167 77.001 -18.5c52 -6 101.667 1.33301 149 22c34.667 15.333 62.834 36.333 84.501 63s33.167 57.667 34.5 93c0 79.333 -34.333 141.333 -103 186c-16.667 10.667 -37.334 21.667 -62.001 33l-64 29c-18 8 -35.667 17.167 -53 27.5
s-30.5 22.5 -39.5 36.5s-13.167 30 -12.5 48c0 62 19 107.333 57 136c31.333 24 67.5 32.167 108.5 24.5s72.833 -28.5 95.5 -62.5c15.333 -28 23 -57.333 23 -88h10l-12 170h-10z" />
    <glyph glyph-name="t" unicode="t" horiz-adv-x="660" 
d="M62 720l-12 -210h10c3.33301 53.333 10.666 94.5 21.999 123.5s26.833 49 46.5 60s46.834 16.5 81.501 16.5h70v-620c0 -28.667 -3.66699 -48 -11 -58c-10.667 -14.667 -33.667 -22 -69 -22v-10h260v10c-34.667 0 -57.667 7 -69 21c-7.33301 10 -11 29.667 -11 59v620h70
c34.667 0 61.834 -5.5 81.501 -16.5s35.167 -31 46.5 -60s18.666 -70.167 21.999 -123.5h10l-12 210h-536z" />
    <glyph glyph-name="u" unicode="u" horiz-adv-x="726" 
d="M676 720v-9.99902c-27.333 0 -47.333 -6.33301 -60 -19c-13.333 -12.667 -20 -33 -20 -61v-440c0 -52.667 -18.5 -97.5 -55.5 -134.5s-81.833 -55.5 -134.5 -55.5h-64h-4c-62.667 0.666992 -114.667 21 -156 61c-34.667 34 -52 73.667 -52 119v450
c0 29.333 -3.66699 49 -11 59c-11.333 14 -34.333 21 -69 21v10h260v-10c-35.333 0 -58.333 -7.33301 -69 -22c-7.33301 -10 -11 -29.333 -11 -58v-450v0c0 -42 9 -79 27 -111c21.333 -38.667 48.333 -58.334 81 -59.001h4h64c50 0 92.5 17.5 127.5 52.5
s52.5 77.5 52.5 127.5v440c0 29.333 -6.33301 50 -19 62c-12 12 -32.333 18 -61 18v10h170z" />
    <glyph glyph-name="v" unicode="v" 
d="M50 720v-9.99902c36 0 62 -9.33301 78 -28c7.33301 -8.66699 15.333 -25.667 24 -51l236 -631h11l48 128l187 502c13.333 30.667 25.666 51 36.999 61c14 12.667 37 19 69 19v10h-160v-10c31.333 0 49.333 -7 54 -21c3.33301 -8.66699 0 -28.334 -10 -59.001l-183 -488
l-182 489c-10 20 -12.667 36.667 -8 50c6.66699 19.333 26.334 29 59.001 29v10h-260z" />
    <glyph glyph-name="w" unicode="w" horiz-adv-x="960" 
d="M50 720l-0.00390625 -10.001c30.667 0 52.334 -5 65.001 -15c4.66699 -4 9 -9.66699 13 -17s6.83301 -13.833 8.5 -19.5s4.16699 -15.5 7.5 -29.5l164 -629h12l164 628l164 -628h12l166 636c8 29.333 17.333 49 28 59c10 10 28.667 15 56 15v10h-146v-10
c28.667 0 46 -3 52 -9c8.66699 -8 8.33398 -29.667 -0.999023 -65l-115 -442l-114 441c-7.33301 23.333 -8 41 -2 53c8 14.667 26.667 22 56 22v10h-250v-10c30.667 0 52.334 -5 65.001 -15c10 -7.33301 18 -22.666 24 -45.999c-1.33301 -4 -2.66602 -8.33301 -3.99902 -13
l-115 -442l-114 441c-7.33301 23.333 -8 41 -2 53c8 14.667 26.667 22 56 22v10h-250z" />
    <glyph glyph-name="x" unicode="x" horiz-adv-x="739" 
d="M50 720l-0.00195312 -10.001c24 0 42 -3.33301 54 -10c12.667 -6.66699 24 -19.334 34 -38.001l192 -327l-177 -268c-14.667 -19.333 -29.667 -33.333 -45 -42c-17.333 -10 -36.666 -15 -57.999 -15v-10h140v10c-23.333 0 -36.666 5.66699 -39.999 17
c-2 8.66699 2.66699 21.334 14 38.001l172 260l148 -252c11.333 -19.333 15.333 -34.333 12 -45c-4 -12 -19 -18 -45 -18v-10h238v10c-24 0 -42 5 -54 15c-3.33301 2 -6.33301 4.5 -9 7.5s-5.5 6.83301 -8.5 11.5s-5.33301 8.5 -7 11.5l-8.5 15l-9 15.5l-196 332l167 253
c9.33301 14 21 24 35 30c12.667 6 34.334 9 65.001 9v10h-160v-10c30 0 48 -3.33301 54 -10c5.33301 -5.33301 3.66602 -14.666 -5.00098 -27.999l-162 -244l-138 236c-10.667 16.667 -13.667 28.667 -9 36c4.66699 6.66699 16.667 10 36 10v10h-230z" />
    <glyph glyph-name="y" unicode="y" horiz-adv-x="690" 
d="M50 720v-10.001c26 0 46 -4 60 -12c14 -7.33301 24.333 -19 31 -35l169 -375v-198c0 -28.667 -3.66699 -48 -11 -58c-10.667 -14.667 -33.667 -22 -69 -22v-10h80h100h80v10c-34.667 0 -57.667 7 -69 21c-7.33301 10 -11 29.667 -11 59v266l138 307
c6.66699 16 17.167 27.833 31.5 35.5s34.5 11.5 60.5 11.5v10h-150v-10c23.333 0 39 -4 47 -12c7.33301 -8 7.66602 -19 0.999023 -33l-144 -320l-143 317c-6.66699 18.667 -7 31.334 -1 38.001c6.66699 6.66699 23.334 10 50.001 10v10h-250z" />
    <glyph glyph-name="z" unicode="z" horiz-adv-x="560" 
d="M62 720l-12 -210h10c3.33301 53.333 10.666 94.5 21.999 123.5s26.833 49 46.5 60s46.834 16.5 81.501 16.5h200l-360 -700v-10h448l12 210h-10c-3.33301 -53.333 -10.666 -94.5 -21.999 -123.5s-26.833 -49 -46.5 -60s-46.834 -16.5 -81.501 -16.5h-190l350 700v10h-448
z" />
    <glyph glyph-name="braceleft" unicode="{" horiz-adv-x="420" 
d="M370 803c-57.333 0 -106.333 -17.168 -147 -51.501s-61.667 -75.833 -63 -124.5v-19v-60v-15c-0.666992 -46 -11.667 -85 -33 -117s-47 -48 -77 -48v0v-10v0c30 0 55.667 -16 77 -48s32.333 -71 33 -117v-21v-56v-18c1.33301 -48.667 22.5 -90 63.5 -124
s89.833 -51 146.5 -51v10c-30 0 -55.5 15.833 -76.5 47.5s-32.167 70.5 -33.5 116.5v19v57v21c-1.33301 40 -17 75.833 -47 107.5s-68.333 52.167 -115 61.5c46.667 9.33301 85 29.833 115 61.5s45.667 67.834 47 108.501v14v61v19c0.666992 46 11.667 85.167 33 117.5
s47 48.5 77 48.5v10z" />
    <glyph glyph-name="bar" unicode="|" horiz-adv-x="140" 
d="M50 804h40v-880h-40v880z" />
    <glyph glyph-name="braceright" unicode="}" horiz-adv-x="420" 
d="M50 798c57.333 0 106.333 -17.168 147 -51.501s61.667 -75.833 63 -124.5v-19v-60v-15c0.666992 -46 11.667 -85 33 -117s47 -48 77 -48v0v-10v0c-30 0 -55.667 -16 -77 -48s-32.333 -71 -33 -117v-21v-56v-18c-1.33301 -48.667 -22.5 -90 -63.5 -124
s-89.833 -51 -146.5 -51v10c30 0 55.5 15.833 76.5 47.5s32.167 70.5 33.5 116.5v19v57v21c1.33301 40 17 75.833 47 107.5s68.333 52.167 115 61.5c-46.667 9.33301 -85 29.833 -115 61.5s-45.667 67.834 -47 108.501v14v61v19c-0.666992 46 -11.667 85.167 -33 117.5
s-47 48.5 -77 48.5v10z" />
    <glyph glyph-name="asciitilde" unicode="~" horiz-adv-x="587" 
d="M184 429c-66.667 -0.666992 -111.333 -30.668 -134 -90.001l5 -7c24 8.66699 48.833 12.5 74.5 11.5s52.5 -3.66699 80.5 -8s55 -10.166 81 -17.499s51.833 -12.5 77.5 -15.5s49 -3.66699 70 -2s40.167 9 57.5 22s31 32.167 41 57.5l-5 5
c-18.667 -6.66699 -44.167 -8.16699 -76.5 -4.5s-62 9.16699 -89 16.5s-58.167 14.5 -93.5 21.5s-65 10.5 -89 10.5z" />
    <glyph glyph-name="exclamdown" unicode="&#xa1;" horiz-adv-x="200" 
d="M100.5 0c-13 0 -24.334 4.33203 -34.001 12.999s-15.167 19.334 -16.5 32.001v10l29 420c0.666992 9.33301 3 16.666 7 21.999s9 8 15 8c5.33301 0 10 -2.66699 14 -8s6.33301 -12.666 7 -21.999l28 -420v-9c-1.33301 -13.333 -6.66602 -24.333 -15.999 -33
s-20.5 -13 -33.5 -13zM99.999 619.999c-14 0 -25.833 4.83301 -35.5 14.5s-14.5 21.5 -14.5 35.5s4.83301 25.833 14.5 35.5s21.5 14.5 35.5 14.5s25.833 -4.83301 35.5 -14.5s14.5 -21.5 14.5 -35.5s-4.83301 -25.833 -14.5 -35.5s-21.5 -14.5 -35.5 -14.5z" />
    <glyph glyph-name="cent" unicode="&#xa2;" horiz-adv-x="516" 
d="M359 717l-32.9971 -103.001h-13h-15h-4c-67.333 0 -124.833 -23.667 -172.5 -71s-71.5 -104.666 -71.5 -171.999c0 -46 11.833 -88.333 35.5 -127s55.167 -68.334 94.5 -89.001l-40 -124l19 -6l39 121c30.667 -12.667 62.667 -19 96 -19c55.333 0 97.666 12 126.999 36
c30.667 25.333 45.667 60.666 45 105.999h-6c0 -43.333 -15.667 -76.666 -47 -99.999c-30 -23.333 -69.667 -35 -119 -35c-32 0 -62 10.667 -90 32l139 434c20.667 -10 34.667 -27 42 -51c1.33301 -4 2.66602 -10.167 3.99902 -18.5s3 -15.333 5 -21s5 -9.5 9 -11.5
c9.33301 -5.33301 18.666 -4.66602 27.999 2.00098c8 6 12.5 14.333 13.5 25s-1.83301 20.667 -8.5 30c-20 29.333 -50 48 -90 56l32 100zM312.003 607.999c4 0 8 -0.332031 12 -0.999023l-136 -426c-22 22 -39.167 49.667 -51.5 83s-18.5 69 -18.5 107
c0 65.333 17.167 121.166 51.5 167.499s75.833 69.5 124.5 69.5h17h1z" />
    <glyph glyph-name="sterling" unicode="&#xa3;" horiz-adv-x="660" 
d="M370 720c-57.333 0 -106.332 -17.002 -146.999 -51.002s-61.667 -75.333 -63 -124v-20v-145h-110v-20h110v-169v-17c-1.33301 -45.333 -12.5 -84 -33.5 -116s-46.5 -48 -76.5 -48v-10c16 0 31.333 1.66699 46 5s31.167 8.16602 49.5 14.499s31.166 10.5 38.499 12.5
c30 8 59 10 87 6c16 -2.66699 35.667 -6.66699 59 -12s43.333 -9.66602 60 -12.999s35.167 -6.66602 55.5 -9.99902s38 -4.33301 53 -3s29.833 4.33301 44.5 9s27.667 13 39 25s20.666 27.333 27.999 46c-1.33301 2 -3 4 -5 6c-18.667 -6.66699 -44.167 -8.16699 -76.5 -4.5
s-62 9.16699 -89 16.5s-58.167 14.5 -93.5 21.5s-65 10.5 -89 10.5h-5c4.66699 14.667 7.33398 30 8.00098 46v14v170h170v20h-170v144v21c0.666992 46 11.667 85 33 117s47 48 77 48v0h42h5c22.667 -0.666992 43.667 -8.33398 63 -23.001s33.333 -35.334 42 -62.001
c2 -6 4 -15.167 6 -27.5s4.33301 -22.666 7 -30.999s7.33398 -14.166 14.001 -17.499c13.333 -7.33301 26.666 -6 39.999 4c12.667 8.66699 19.667 20.834 21 36.501s-3 30.5 -13 44.5c-18 26 -43 46.833 -75 62.5s-67.333 23.5 -106 23.5h-1h-1h-44z" />
    <glyph glyph-name="yen" unicode="&#xa5;" horiz-adv-x="690" 
d="M50 720v-10.001c26 0 46 -4 60 -12c14 -7.33301 24.333 -19 31 -35l169 -375v-8h-104v-20h104v-60h-104v-20h104v-90c0 -28.667 -3.66699 -48 -11 -58c-10.667 -14.667 -33.667 -22 -69 -22v-10h80h100h80v10c-34.667 0 -57.667 7 -69 21c-7.33301 10 -11 29.667 -11 59
v90h96v20h-96v60h96v20h-96v76l138 307c6.66699 16 17.167 27.833 31.5 35.5s34.5 11.5 60.5 11.5v10h-150v-10c23.333 0 39 -4 47 -12c7.33301 -8 7.66602 -19 0.999023 -33l-144 -320l-143 317c-6.66699 18.667 -7 31.334 -1 38.001c6.66699 6.66699 23.334 10 50.001 10
v10h-250z" />
    <glyph glyph-name="questiondown" unicode="&#xbf;" horiz-adv-x="506" 
d="M260 0c39.333 0 75.3301 9.16992 107.997 27.5029s58 42.833 76 73.5c10 16.667 14.333 34.167 13 52.5s-8.33301 32.833 -21 43.5c-13.333 11.333 -26.666 12.666 -39.999 3.99902c-6.66699 -4 -11.5 -10.833 -14.5 -20.5s-5.33301 -21.834 -7 -36.501
s-3.5 -25 -5.5 -31c-8.66699 -32.667 -23.167 -57.834 -43.5 -75.501s-42.166 -26.5 -65.499 -26.5c-27.333 0 -52 16.833 -74 50.5s-34 74.167 -36 121.5c-0.666992 9.33301 -1 19.333 -1 30c0 48 11.333 89.5 34 124.5s48.334 52.5 77.001 52.5v10v140h-10v-140
c-56 -2.66699 -103.333 -22 -142 -58s-58 -79 -58 -129v-10.5v-9.5c0.666992 -53.333 21.5 -98.833 62.5 -136.5s90.167 -56.5 147.5 -56.5zM255.997 620.003c14 0 25.833 4.83301 35.5 14.5s14.5 21.5 14.5 35.5s-4.83301 25.833 -14.5 35.5s-21.5 14.5 -35.5 14.5
s-25.833 -4.83301 -35.5 -14.5s-14.5 -21.5 -14.5 -35.5s4.83301 -25.833 14.5 -35.5s21.5 -14.5 35.5 -14.5z" />
    <glyph glyph-name="Agrave" unicode="&#xc0;" 
d="M338 928c-6 0 -11.002 -1.66699 -15.002 -5c-5.33301 -4.66699 -8.16602 -11 -8.49902 -19s1.83398 -15.667 6.50098 -23c1.33301 -2 3 -4 5 -6c10.667 -14 24 -28.833 40 -44.5s29.333 -25.5 40 -29.5c6 -2 10.5 -1.83301 13.5 0.5s4.16699 6.5 3.5 12.5
c-2 12.667 -10.667 31 -26 55c-10 16 -19.333 29.333 -28 40c-2 2.66699 -3.66699 4.66699 -5 6c-7.33301 8.66699 -16 13 -26 13zM390.998 720l-48 -128.001l-187 -502c-13.333 -30.667 -25.666 -51 -36.999 -61c-14 -12.667 -37 -19 -69 -19v-10h160v10
c-31.333 0 -49.333 7 -54 21c-3.33301 8.66699 0 28.334 10 59.001l42 110h282l41 -111c10 -20 12.667 -36.667 8 -50c-6.66699 -19.333 -26.334 -29 -59.001 -29v-10h260v10c-36 0 -62 9.33301 -78 28c-7.33301 8.66699 -15.333 25.667 -24 51l-236 631h-11z
M348.998 577.999l137 -368h-275z" />
    <glyph glyph-name="Aacute" unicode="&#xc1;" 
d="M435 928c-10 0 -19 -4.33203 -27 -12.999c-1.33301 -1.33301 -2.66602 -3 -3.99902 -5c-8.66699 -10.667 -18.334 -24.334 -29.001 -41.001c-14.667 -24 -23 -42 -25 -54c-1.33301 -6.66699 -0.5 -11 2.5 -13s7.83301 -2 14.5 0c10.667 4 24 13.833 40 29.5
s29.333 30.5 40 44.5c1.33301 1.33301 2.66602 3 3.99902 5c5.33301 7.33301 7.83301 15 7.5 23s-3.16602 14.333 -8.49902 19c-4.66699 3.33301 -9.66699 5 -15 5zM391 720.001l-48 -128.001l-187 -502c-13.333 -30.667 -25.666 -51 -36.999 -61
c-14 -12.667 -37 -19 -69 -19v-10h160v10c-31.333 0 -49.333 7 -54 21c-3.33301 8.66699 0 28.334 10 59.001l42 110h282l41 -111c10 -20 12.667 -36.667 8 -50c-6.66699 -19.333 -26.334 -29 -59.001 -29v-10h260v10c-36 0 -62 9.33301 -78 28
c-7.33301 8.66699 -15.333 25.667 -24 51l-236 631h-11zM349 578l137 -368h-275z" />
    <glyph glyph-name="Acircumflex" unicode="&#xc2;" 
d="M373 1004l-111 -183l34 -21l100 165l100 -165l34 21l-111 183h-46zM391 720l-48 -128.001l-187 -502c-13.333 -30.667 -25.666 -51 -36.999 -61c-14 -12.667 -37 -19 -69 -19v-10h160v10c-31.333 0 -49.333 7 -54 21c-3.33301 8.66699 0 28.334 10 59.001l42 110h282
l41 -111c10 -20 12.667 -36.667 8 -50c-6.66699 -19.333 -26.334 -29 -59.001 -29v-10h260v10c-36 0 -62 9.33301 -78 28c-7.33301 8.66699 -15.333 25.667 -24 51l-236 631h-11zM349 577.999l137 -368h-275z" />
    <glyph glyph-name="Atilde" unicode="&#xc3;" 
d="M354 880c-26 0 -43.666 -18.6689 -52.999 -56.002l2 -5c12 6.66699 26 9 42 7c10 -1.33301 25.333 -5.83301 46 -13.5s35.667 -12.167 45 -13.5c28 -3.33301 46.667 13.334 56 50.001l-2 4c-2.66699 -1.33301 -5.33398 -2.33301 -8.00098 -3s-5.5 -1 -8.5 -1h-8.5
c-2.66699 0 -5.83398 0.5 -9.50098 1.5l-9 2.5l-10 3c-4.33301 1.33301 -7.66602 2.5 -9.99902 3.5s-6 2.33301 -11 4s-8.16699 2.83398 -9.5 3.50098c-22.667 8.66699 -40 13 -52 13zM391.001 719.998l-48 -128.001l-187 -502c-13.333 -30.667 -25.666 -51 -36.999 -61
c-14 -12.667 -37 -19 -69 -19v-10h160v10c-31.333 0 -49.333 7 -54 21c-3.33301 8.66699 0 28.334 10 59.001l42 110h282l41 -111c10 -20 12.667 -36.667 8 -50c-6.66699 -19.333 -26.334 -29 -59.001 -29v-10h260v10c-36 0 -62 9.33301 -78 28
c-7.33301 8.66699 -15.333 25.667 -24 51l-236 631h-11zM349.001 577.997l137 -368h-275z" />
    <glyph glyph-name="Adieresis" unicode="&#xc4;" 
d="M304 900c-14 0 -25.833 -4.83301 -35.5 -14.5s-14.5 -21.5 -14.5 -35.5s4.83301 -25.833 14.5 -35.5s21.5 -14.5 35.5 -14.5s25.833 4.83301 35.5 14.5s14.5 21.5 14.5 35.5s-4.83301 25.833 -14.5 35.5s-21.5 14.5 -35.5 14.5zM484 900
c-14 0 -25.833 -4.83301 -35.5 -14.5s-14.5 -21.5 -14.5 -35.5s4.83301 -25.833 14.5 -35.5s21.5 -14.5 35.5 -14.5s25.833 4.83301 35.5 14.5s14.5 21.5 14.5 35.5s-4.83301 25.833 -14.5 35.5s-21.5 14.5 -35.5 14.5zM391 720l-48 -128.001l-187 -502
c-13.333 -30.667 -25.666 -51 -36.999 -61c-14 -12.667 -37 -19 -69 -19v-10h160v10c-31.333 0 -49.333 7 -54 21c-3.33301 8.66699 0 28.334 10 59.001l42 110h282l41 -111c10 -20 12.667 -36.667 8 -50c-6.66699 -19.333 -26.334 -29 -59.001 -29v-10h260v10
c-36 0 -62 9.33301 -78 28c-7.33301 8.66699 -15.333 25.667 -24 51l-236 631h-11zM349 577.999l137 -368h-275z" />
    <glyph glyph-name="Aring" unicode="&#xc5;" 
d="M396.5 900c-27.667 0 -51.333 -9.00098 -71 -27.001s-29.5 -39.667 -29.5 -65c0 -24.667 9 -45.834 27 -63.501s40 -27.5 66 -29.5l-46 -123l-187 -502c-13.333 -30.667 -25.666 -51 -36.999 -61c-14 -12.667 -37 -19 -69 -19v-10h160v10c-31.333 0 -49.333 7 -54 21
c-3.33301 8.66699 0 28.334 10 59.001l42 110h282l41 -111c10 -20 12.667 -36.667 8 -50c-6.66699 -19.333 -26.334 -29 -59.001 -29v-10h260v10c-36 0 -62 9.33301 -78 28c-7.33301 8.66699 -15.333 25.667 -24 51l-234 626c26 2 47.833 11.833 65.5 29.5
s26.5 38.834 26.5 63.501c0 25.333 -9.66699 47 -29 65s-42.833 27 -70.5 27zM396.001 894.999c14 0 27.167 -8.66699 39.5 -26s18.5 -37.833 18.5 -61.5s-6.16699 -44.167 -18.5 -61.5s-25.5 -26 -39.5 -26s-27 8.66699 -39 26s-18 37.833 -18 61.5s6 44.167 18 61.5
s25 26 39 26zM349.001 577.999l137 -368h-275z" />
    <glyph glyph-name="AE" unicode="&#xc6;" horiz-adv-x="1118" 
d="M460 720l0.000976562 -10.001c30 0 49.333 -4 58 -12c10.667 -9.33301 9 -25.333 -5 -48l-362 -586c-14 -22.667 -28.667 -37.667 -44 -45c-12.667 -6 -31.667 -9 -57 -9v-10h140v10c-24.667 0 -38.334 4.33301 -41.001 13c-2.66699 6.66699 1.66602 19.667 12.999 39
l79 128h319v-100c0 -28.667 -3.33301 -48 -10 -58c-11.333 -14.667 -34.666 -22 -69.999 -22v-10h180h368l40 210h-10c-15.333 -75.333 -37.666 -128.333 -66.999 -159c-26 -27.333 -62 -41 -108 -41h-223v80v260h160c38.667 0 65.667 -4.66699 81 -14
c11.333 -6.66699 19 -16.667 23 -30s6 -32 6 -56h10v210h-10c0 -37.333 -5.66699 -62.666 -17 -75.999c-13.333 -16 -44 -24 -92 -24h-161v270v80h205c49.333 0 84.666 -12.333 105.999 -37c24 -28 38.333 -82.333 43 -163h10l-12 210h-552zM561.001 708.999l-1 -79v-430
h-313z" />
    <glyph glyph-name="Ccedilla" unicode="&#xc7;" horiz-adv-x="715" 
d="M410 720c-65.333 0 -125.667 -16.0049 -181 -48.0049s-99 -75.667 -131 -131s-48 -115.666 -48 -180.999s16 -125.5 48 -180.5s75.667 -98.667 131 -131s115.333 -48.5 180 -48.5l-18 -54c3.33301 -2 6.33301 -4 9 -6c16 -13.333 24 -31.333 24 -54
c0 -18 -5.66699 -33.5 -17 -46.5s-25 -19.5 -41 -19.5v-8c44 -0.666992 77.333 4.33301 100 15s34 30.334 34 59.001c0 24 -7.5 41.333 -22.5 52s-38.833 17.334 -71.5 20.001l14 42c35.333 0.666992 75.833 7.33398 121.5 20.001s72.5 19.334 80.5 20.001
c11.333 0.666992 19.666 -2 24.999 -8s8 -16.667 8 -32h10v210h-10c0 -36 -7.16699 -67.5 -21.5 -94.5s-33.666 -47.833 -57.999 -62.5s-50.333 -25.5 -78 -32.5s-56.834 -10.5 -87.501 -10.5c-47.333 0 -90.833 15.667 -130.5 47s-71.167 73.833 -94.5 127.5
s-35 112.167 -35 175.5s11.667 121.833 35 175.5s54.833 96.167 94.5 127.5s83.167 47 130.5 47c30.667 0 59.834 -3.5 87.501 -10.5s53.667 -18 78 -33s43.666 -35.833 57.999 -62.5s21.5 -58 21.5 -94h10v210h-10c0 -15.333 -2.66699 -26 -8 -32
s-13.666 -8.66699 -24.999 -8c-6.66699 0 -34.167 6.66699 -82.5 20s-91.5 20 -129.5 20z" />
    <glyph glyph-name="Egrave" unicode="&#xc8;" horiz-adv-x="688" 
d="M50 720l0.00195312 -10.001c35.333 0 58.333 -7.33301 69 -22c7.33301 -10 11 -29.333 11 -58v-540c0 -28.667 -3.66699 -48 -11 -58c-10.667 -14.667 -33.667 -22 -69 -22v-10h180h368l40 210h-10c-16 -75.333 -38.333 -128.333 -67 -159
c-26 -27.333 -62.333 -41 -109 -41h-222v80v260h159c39.333 0 66.333 -4.66699 81 -14c11.333 -6.66699 19.166 -16.667 23.499 -30s6.5 -32 6.5 -56h10v210h-10c0 -37.333 -5.66699 -62.666 -17 -75.999c-14 -16 -45 -24 -93 -24h-160v270v80h204
c49.333 0 84.666 -12.333 105.999 -37c24 -28 38.667 -82.333 44 -163h10l-12 210h-352h-180zM312.002 927.999c-6 0 -11.002 -1.66699 -15.002 -5c-5.33301 -4.66699 -8.16602 -11 -8.49902 -19s1.83398 -15.667 6.50098 -23c1.33301 -2 3 -4 5 -6
c10.667 -14 24 -28.833 40 -44.5s29.333 -25.5 40 -29.5c6 -2 10.5 -1.83301 13.5 0.5s4.16699 6.5 3.5 12.5c-2 12.667 -10.667 31 -26 55c-10 16 -19.333 29.333 -28 40c-2 2.66699 -3.66699 4.66699 -5 6c-7.33301 8.66699 -16 13 -26 13z" />
    <glyph glyph-name="Eacute" unicode="&#xc9;" horiz-adv-x="688" 
d="M50 720l0.00195312 -10.001c35.333 0 58.333 -7.33301 69 -22c7.33301 -10 11 -29.333 11 -58v-540c0 -28.667 -3.66699 -48 -11 -58c-10.667 -14.667 -33.667 -22 -69 -22v-10h180h368l40 210h-10c-16 -75.333 -38.333 -128.333 -67 -159
c-26 -27.333 -62.333 -41 -109 -41h-222v80v260h159c39.333 0 66.333 -4.66699 81 -14c11.333 -6.66699 19.166 -16.667 23.499 -30s6.5 -32 6.5 -56h10v210h-10c0 -37.333 -5.66699 -62.666 -17 -75.999c-14 -16 -45 -24 -93 -24h-160v270v80h204
c49.333 0 84.666 -12.333 105.999 -37c24 -28 38.667 -82.333 44 -163h10l-12 210h-352h-180zM416.002 927.999c-10 0 -19 -4.33203 -27 -12.999c-1.33301 -1.33301 -2.66602 -3 -3.99902 -5c-8.66699 -10.667 -18.334 -24.334 -29.001 -41.001c-14.667 -24 -23 -42 -25 -54
c-1.33301 -6.66699 -0.5 -11 2.5 -13s7.83301 -2 14.5 0c10.667 4 24 13.833 40 29.5s29.333 30.5 40 44.5c1.33301 1.33301 2.66602 3 3.99902 5c5.33301 7.33301 7.83301 15 7.5 23s-3.16602 14.333 -8.49902 19c-4.66699 3.33301 -9.66699 5 -15 5z" />
    <glyph glyph-name="Ecircumflex" unicode="&#xca;" horiz-adv-x="688" 
d="M50 720l0.00195312 -10.001c35.333 0 58.333 -7.33301 69 -22c7.33301 -10 11 -29.333 11 -58v-540c0 -28.667 -3.66699 -48 -11 -58c-10.667 -14.667 -33.667 -22 -69 -22v-10h180h368l40 210h-10c-16 -75.333 -38.333 -128.333 -67 -159
c-26 -27.333 -62.333 -41 -109 -41h-222v80v260h159c39.333 0 66.333 -4.66699 81 -14c11.333 -6.66699 19.166 -16.667 23.499 -30s6.5 -32 6.5 -56h10v210h-10c0 -37.333 -5.66699 -62.666 -17 -75.999c-14 -16 -45 -24 -93 -24h-160v270v80h204
c49.333 0 84.666 -12.333 105.999 -37c24 -28 38.667 -82.333 44 -163h10l-12 210h-352h-180zM324.002 1004l-111 -183l34 -21l100 165l100 -165l34 21l-111 183h-46z" />
    <glyph glyph-name="Edieresis" unicode="&#xcb;" horiz-adv-x="688" 
d="M50 720l0.00195312 -10.001c35.333 0 58.333 -7.33301 69 -22c7.33301 -10 11 -29.333 11 -58v-540c0 -28.667 -3.66699 -48 -11 -58c-10.667 -14.667 -33.667 -22 -69 -22v-10h180h368l40 210h-10c-16 -75.333 -38.333 -128.333 -67 -159
c-26 -27.333 -62.333 -41 -109 -41h-222v80v260h159c39.333 0 66.333 -4.66699 81 -14c11.333 -6.66699 19.166 -16.667 23.499 -30s6.5 -32 6.5 -56h10v210h-10c0 -37.333 -5.66699 -62.666 -17 -75.999c-14 -16 -45 -24 -93 -24h-160v270v80h204
c49.333 0 84.666 -12.333 105.999 -37c24 -28 38.667 -82.333 44 -163h10l-12 210h-352h-180zM254.002 899.999c-14 0 -25.833 -4.83301 -35.5 -14.5s-14.5 -21.5 -14.5 -35.5s4.83301 -25.833 14.5 -35.5s21.5 -14.5 35.5 -14.5s25.833 4.83301 35.5 14.5
s14.5 21.5 14.5 35.5s-4.83301 25.833 -14.5 35.5s-21.5 14.5 -35.5 14.5zM434.002 899.999c-14 0 -25.833 -4.83301 -35.5 -14.5s-14.5 -21.5 -14.5 -35.5s4.83301 -25.833 14.5 -35.5s21.5 -14.5 35.5 -14.5s25.833 4.83301 35.5 14.5s14.5 21.5 14.5 35.5
s-4.83301 25.833 -14.5 35.5s-21.5 14.5 -35.5 14.5z" />
    <glyph glyph-name="Igrave" unicode="&#xcc;" horiz-adv-x="360" 
d="M50 720v-10c35.333 0 58.333 -7.33301 69 -22c7.33301 -10 11 -29.333 11 -58v-540c0 -28.667 -3.66699 -48 -11 -58c-10.667 -14.667 -33.667 -22 -69 -22v-10h260v10c-34.667 0 -57.667 7 -69 21c-7.33301 10 -11 29.667 -11 59v540c0 29.333 3.66699 49 11 59
c11.333 14 34.333 21 69 21v10h-260zM145 928c-6 0 -11.002 -1.66699 -15.002 -5c-5.33301 -4.66699 -8.16602 -11 -8.49902 -19s1.83398 -15.667 6.50098 -23c1.33301 -2 3 -4 5 -6c10.667 -14 24 -28.833 40 -44.5s29.333 -25.5 40 -29.5c6 -2 10.5 -1.83301 13.5 0.5
s4.16699 6.5 3.5 12.5c-2 12.667 -10.667 31 -26 55c-10 16 -19.333 29.333 -28 40c-2 2.66699 -3.66699 4.66699 -5 6c-7.33301 8.66699 -16 13 -26 13z" />
    <glyph glyph-name="Iacute" unicode="&#xcd;" horiz-adv-x="360" 
d="M50 720v-10c35.333 0 58.333 -7.33301 69 -22c7.33301 -10 11 -29.333 11 -58v-540c0 -28.667 -3.66699 -48 -11 -58c-10.667 -14.667 -33.667 -22 -69 -22v-10h260v10c-34.667 0 -57.667 7 -69 21c-7.33301 10 -11 29.667 -11 59v540c0 29.333 3.66699 49 11 59
c11.333 14 34.333 21 69 21v10h-260zM233 928c-10 0 -19 -4.33203 -27 -12.999c-1.33301 -1.33301 -2.66602 -3 -3.99902 -5c-8.66699 -10.667 -18.334 -24.334 -29.001 -41.001c-14.667 -24 -23 -42 -25 -54c-1.33301 -6.66699 -0.5 -11 2.5 -13s7.83301 -2 14.5 0
c10.667 4 24 13.833 40 29.5s29.333 30.5 40 44.5c1.33301 1.33301 2.66602 3 3.99902 5c5.33301 7.33301 7.83301 15 7.5 23s-3.16602 14.333 -8.49902 19c-4.66699 3.33301 -9.66699 5 -15 5z" />
    <glyph glyph-name="Icircumflex" unicode="&#xce;" horiz-adv-x="368" 
d="M57 720v-10c35.333 0 58.333 -7.33301 69 -22c7.33301 -10 11 -29.333 11 -58v-540c0 -28.667 -3.66699 -48 -11 -58c-10.667 -14.667 -33.667 -22 -69 -22v-10h260v10c-34.667 0 -57.667 7 -69 21c-7.33301 10 -11 29.667 -11 59v540c0 29.333 3.66699 49 11 59
c11.333 14 34.333 21 69 21v10h-260zM161 1003l-111 -182l34 -21l100 165l100 -165l34 21l-111 182h-46z" />
    <glyph glyph-name="Idieresis" unicode="&#xcf;" horiz-adv-x="380" 
d="M59 720v-10c35.333 0 58.333 -7.33301 69 -22c7.33301 -10 11 -29.333 11 -58v-540c0 -28.667 -3.66699 -48 -11 -58c-10.667 -14.667 -33.667 -22 -69 -22v-10h260v10c-34.667 0 -57.667 7 -69 21c-7.33301 10 -11 29.667 -11 59v540c0 29.333 3.66699 49 11 59
c11.333 14 34.333 21 69 21v10h-260zM100 902c-14 0 -25.833 -4.83301 -35.5 -14.5s-14.5 -21.5 -14.5 -35.5s4.83301 -25.833 14.5 -35.5s21.5 -14.5 35.5 -14.5s25.833 4.83301 35.5 14.5s14.5 21.5 14.5 35.5s-4.83301 25.833 -14.5 35.5s-21.5 14.5 -35.5 14.5zM280 902
c-14 0 -25.833 -4.83301 -35.5 -14.5s-14.5 -21.5 -14.5 -35.5s4.83301 -25.833 14.5 -35.5s21.5 -14.5 35.5 -14.5s25.833 4.83301 35.5 14.5s14.5 21.5 14.5 35.5s-4.83301 25.833 -14.5 35.5s-21.5 14.5 -35.5 14.5z" />
    <glyph glyph-name="Eth" unicode="&#xd0;" horiz-adv-x="780" 
d="M50 720v-9.99805c35.333 0 58.333 -7.33301 69 -22c7.33301 -10 11 -29.333 11 -58v-260h-75v-20h75v-260c0 -28.667 -3.66699 -48 -11 -58c-10.667 -14.667 -33.667 -22 -69 -22v-10h180h140c99.333 0 184.166 35.167 254.499 105.5s105.5 155.166 105.5 254.499
s-35.167 184.166 -105.5 254.499s-155.166 105.5 -254.499 105.5h-140h-180zM230 710.002h140v0c47.333 0 90.833 -15.667 130.5 -47s71.167 -73.833 94.5 -127.5s35 -112.167 35 -175.5s-11.667 -121.833 -35 -175.5s-54.833 -96.167 -94.5 -127.5s-83.167 -47 -130.5 -47
v0h-140v80v260h205v20h-205v260v80z" />
    <glyph glyph-name="Ntilde" unicode="&#xd1;" horiz-adv-x="730" 
d="M326 880c-26 0 -43.666 -18.6689 -52.999 -56.002l2 -5c12 6.66699 26 9 42 7c10 -1.33301 25.333 -5.83301 46 -13.5s35.667 -12.167 45 -13.5c28 -3.33301 46.667 13.334 56 50.001l-2 4c-2.66699 -1.33301 -5.33398 -2.33301 -8.00098 -3s-5.5 -1 -8.5 -1h-8.5
c-2.66699 0 -5.83398 0.5 -9.50098 1.5l-9 2.5l-10 3c-4.33301 1.33301 -7.66602 2.5 -9.99902 3.5s-6 2.33301 -11 4s-8.16699 2.83398 -9.5 3.50098c-22.667 8.66699 -40 13 -52 13zM50.001 719.998v-10c27.333 0 47.333 -6.33301 60 -19c13.333 -12.667 20 -33 20 -61
v-540c0 -28 -6.66699 -48.333 -20 -61c-12.667 -12.667 -32.667 -19 -60 -19v-10h170v10c-28.667 0 -49 6 -61 18c-12.667 12 -19 32.667 -19 62v562l445 -652h15v630c0 28 6.66699 48.333 20 61c12.667 12.667 32.667 19 60 19v10h-170v-10c28.667 0 49 -6 61 -18
c12.667 -12 19 -32.667 19 -62v-461l-376 551h-164z" />
    <glyph glyph-name="Ograve" unicode="&#xd2;" horiz-adv-x="739" 
d="M370 720c-58 0 -111.5 -16 -160.5 -48s-87.833 -75.667 -116.5 -131s-43 -115.666 -43 -180.999s14.333 -125.666 43 -180.999s67.5 -99 116.5 -131s102.5 -48 160.5 -48s111.5 16 160.5 48s87.833 75.667 116.5 131s43 115.666 43 180.999s-14.333 125.666 -43 180.999
s-67.5 99 -116.5 131s-102.5 48 -160.5 48zM370 710c41.333 0 78.833 -15.667 112.5 -47s59.834 -73.666 78.501 -126.999s28 -112 28 -176s-9.33301 -122.667 -28 -176s-44.834 -95.666 -78.501 -126.999s-71.167 -47 -112.5 -47s-78.833 15.667 -112.5 47
s-59.834 73.666 -78.501 126.999s-28 112 -28 176s9.33301 122.667 28 176s44.834 95.666 78.501 126.999s71.167 47 112.5 47zM329 928c-6 0 -11.001 -1.66797 -15.001 -5.00098c-5.33301 -4.66699 -8.16602 -11 -8.49902 -19s2.16699 -15.667 7.5 -23
c1.33301 -2 2.66602 -3.66699 3.99902 -5c10.667 -14 24 -28.833 40 -44.5s29.333 -25.5 40 -29.5c6.66699 -2 11.334 -2 14.001 0s3.66699 6.33301 3 13c-2 12 -10.667 30 -26 54c-10 16.667 -19.333 30.334 -28 41.001c-2 2 -3.33301 3.66699 -4 5
c-8 8.66699 -17 13 -27 13z" />
    <glyph glyph-name="Oacute" unicode="&#xd3;" horiz-adv-x="739" 
d="M370 720c-58 0 -111.5 -16 -160.5 -48s-87.833 -75.667 -116.5 -131s-43 -115.666 -43 -180.999s14.333 -125.666 43 -180.999s67.5 -99 116.5 -131s102.5 -48 160.5 -48s111.5 16 160.5 48s87.833 75.667 116.5 131s43 115.666 43 180.999s-14.333 125.666 -43 180.999
s-67.5 99 -116.5 131s-102.5 48 -160.5 48zM370 710c41.333 0 78.833 -15.667 112.5 -47s59.834 -73.666 78.501 -126.999s28 -112 28 -176s-9.33301 -122.667 -28 -176s-44.834 -95.666 -78.501 -126.999s-71.167 -47 -112.5 -47s-78.833 15.667 -112.5 47
s-59.834 73.666 -78.501 126.999s-28 112 -28 176s9.33301 122.667 28 176s44.834 95.666 78.501 126.999s71.167 47 112.5 47zM420 927c-10 0 -18.6689 -4 -26.002 -12c-1.33301 -1.33301 -3 -3.33301 -5 -6c-8.66699 -10.667 -18 -24 -28 -40
c-15.333 -24 -24 -42.333 -26 -55c-0.666992 -6 0.5 -10.167 3.5 -12.5s7.5 -2.5 13.5 -0.5c10.667 4 24 13.833 40 29.5s29.333 30.5 40 44.5c2 1.33301 3.66699 3.33301 5 6c4.66699 7.33301 6.83398 15 6.50098 23s-3.16602 14 -8.49902 18c-4 3.33301 -9 5 -15 5z" />
    <glyph glyph-name="Ocircumflex" unicode="&#xd4;" horiz-adv-x="739" 
d="M370 720c-58 0 -111.5 -16 -160.5 -48s-87.833 -75.667 -116.5 -131s-43 -115.666 -43 -180.999s14.333 -125.666 43 -180.999s67.5 -99 116.5 -131s102.5 -48 160.5 -48s111.5 16 160.5 48s87.833 75.667 116.5 131s43 115.666 43 180.999s-14.333 125.666 -43 180.999
s-67.5 99 -116.5 131s-102.5 48 -160.5 48zM370 710c41.333 0 78.833 -15.667 112.5 -47s59.834 -73.666 78.501 -126.999s28 -112 28 -176s-9.33301 -122.667 -28 -176s-44.834 -95.666 -78.501 -126.999s-71.167 -47 -112.5 -47s-78.833 15.667 -112.5 47
s-59.834 73.666 -78.501 126.999s-28 112 -28 176s9.33301 122.667 28 176s44.834 95.666 78.501 126.999s71.167 47 112.5 47zM348 1002l-111 -182l34 -21l100 165l100 -165l34 21l-110 182h-47z" />
    <glyph glyph-name="Otilde" unicode="&#xd5;" horiz-adv-x="739" 
d="M343 880c-26 0 -43.666 -18.6689 -52.999 -56.002l2 -5c12 6.66699 26 9 42 7c10 -1.33301 25.333 -5.83301 46 -13.5s35.667 -12.167 45 -13.5c28 -3.33301 46.667 13.334 56 50.001l-2 4c-2.66699 -1.33301 -5.33398 -2.33301 -8.00098 -3s-5.5 -1 -8.5 -1h-8.5
c-2.66699 0 -5.83398 0.5 -9.50098 1.5l-9 2.5l-10 3c-4.33301 1.33301 -7.66602 2.5 -9.99902 3.5s-6 2.33301 -11 4s-8.16699 2.83398 -9.5 3.50098c-22.667 8.66699 -40 13 -52 13zM370.001 719.998c-58 0 -111.5 -16 -160.5 -48s-87.833 -75.667 -116.5 -131
s-43 -115.666 -43 -180.999s14.333 -125.666 43 -180.999s67.5 -99 116.5 -131s102.5 -48 160.5 -48s111.5 16 160.5 48s87.833 75.667 116.5 131s43 115.666 43 180.999s-14.333 125.666 -43 180.999s-67.5 99 -116.5 131s-102.5 48 -160.5 48zM370.001 709.998
c41.333 0 78.833 -15.667 112.5 -47s59.834 -73.666 78.501 -126.999s28 -112 28 -176s-9.33301 -122.667 -28 -176s-44.834 -95.666 -78.501 -126.999s-71.167 -47 -112.5 -47s-78.833 15.667 -112.5 47s-59.834 73.666 -78.501 126.999s-28 112 -28 176
s9.33301 122.667 28 176s44.834 95.666 78.501 126.999s71.167 47 112.5 47z" />
    <glyph glyph-name="Odieresis" unicode="&#xd6;" horiz-adv-x="739" 
d="M370 720c-58 0 -111.5 -16 -160.5 -48s-87.833 -75.667 -116.5 -131s-43 -115.666 -43 -180.999s14.333 -125.666 43 -180.999s67.5 -99 116.5 -131s102.5 -48 160.5 -48s111.5 16 160.5 48s87.833 75.667 116.5 131s43 115.666 43 180.999s-14.333 125.666 -43 180.999
s-67.5 99 -116.5 131s-102.5 48 -160.5 48zM370 710c41.333 0 78.833 -15.667 112.5 -47s59.834 -73.666 78.501 -126.999s28 -112 28 -176s-9.33301 -122.667 -28 -176s-44.834 -95.666 -78.501 -126.999s-71.167 -47 -112.5 -47s-78.833 15.667 -112.5 47
s-59.834 73.666 -78.501 126.999s-28 112 -28 176s9.33301 122.667 28 176s44.834 95.666 78.501 126.999s71.167 47 112.5 47zM277 900c-14 0 -25.833 -4.83301 -35.5 -14.5s-14.5 -21.5 -14.5 -35.5s4.83301 -25.833 14.5 -35.5s21.5 -14.5 35.5 -14.5
s25.833 4.83301 35.5 14.5s14.5 21.5 14.5 35.5s-4.83301 25.833 -14.5 35.5s-21.5 14.5 -35.5 14.5zM457 900c-14 0 -25.833 -4.83301 -35.5 -14.5s-14.5 -21.5 -14.5 -35.5s4.83301 -25.833 14.5 -35.5s21.5 -14.5 35.5 -14.5s25.833 4.83301 35.5 14.5
s14.5 21.5 14.5 35.5s-4.83301 25.833 -14.5 35.5s-21.5 14.5 -35.5 14.5z" />
    <glyph glyph-name="Oslash" unicode="&#xd8;" horiz-adv-x="1024" 
d="M631 742l-49 -77.001c-52 36.667 -109 55 -171 55c-58 0 -111.5 -16 -160.5 -48s-87.833 -75.667 -116.5 -131s-43 -115.666 -43 -180.999c0 -55.333 10.5 -107.166 31.5 -155.499s49.833 -89.5 86.5 -123.5l-52 -81l34 -21l49 77c52 -37.333 109 -56 171 -56
c58 0 111.5 16 160.5 48s87.833 75.667 116.5 131s43 115.666 43 180.999c0 55.333 -10.5 107.333 -31.5 156s-49.833 89.667 -86.5 123l52 81zM411 709.999c56.667 0 105.332 -28.333 145.999 -85l-315 -492c-33.333 64.667 -50 140.334 -50 227.001
c0 64 9.33301 122.667 28 176s44.834 95.666 78.501 126.999s71.167 47 112.5 47zM579.998 586.999c33.333 -64 50.002 -139.668 50.002 -227.001c0 -64 -9.33301 -122.667 -28 -176s-44.834 -95.666 -78.501 -126.999s-71.167 -47 -112.5 -47
c-56.667 0 -105.334 28.333 -146.001 85z" />
    <glyph glyph-name="Ugrave" unicode="&#xd9;" 
d="M676 720v-9.99902c-27.333 0 -47.333 -6.33301 -60 -19c-13.333 -12.667 -20 -33 -20 -61v-440c0 -52.667 -18.5 -97.5 -55.5 -134.5s-81.833 -55.5 -134.5 -55.5h-64h-4c-62.667 0.666992 -114.667 21 -156 61c-34.667 34 -52 73.667 -52 119v450
c0 29.333 -3.66699 49 -11 59c-11.333 14 -34.333 21 -69 21v10h260v-10c-35.333 0 -58.333 -7.33301 -69 -22c-7.33301 -10 -11 -29.333 -11 -58v-450v0c0 -42 9 -79 27 -111c21.333 -38.667 48.333 -58.334 81 -59.001h4h64c50 0 92.5 17.5 127.5 52.5
s52.5 77.5 52.5 127.5v440c0 29.333 -6.33301 50 -19 62c-12 12 -32.333 18 -61 18v10h170zM329 928.001c-6 0 -11.001 -1.66797 -15.001 -5.00098c-5.33301 -4.66699 -8.16602 -11 -8.49902 -19s2.16699 -15.667 7.5 -23c1.33301 -2 2.66602 -3.66699 3.99902 -5
c10.667 -14 24 -28.833 40 -44.5s29.333 -25.5 40 -29.5c6.66699 -2 11.334 -2 14.001 0s3.66699 6.33301 3 13c-2 12 -10.667 30 -26 54c-10 16.667 -19.333 30.334 -28 41.001c-2 2 -3.33301 3.66699 -4 5c-8 8.66699 -17 13 -27 13z" />
    <glyph glyph-name="Uacute" unicode="&#xda;" 
d="M676 720v-9.99902c-27.333 0 -47.333 -6.33301 -60 -19c-13.333 -12.667 -20 -33 -20 -61v-440c0 -52.667 -18.5 -97.5 -55.5 -134.5s-81.833 -55.5 -134.5 -55.5h-64h-4c-62.667 0.666992 -114.667 21 -156 61c-34.667 34 -52 73.667 -52 119v450
c0 29.333 -3.66699 49 -11 59c-11.333 14 -34.333 21 -69 21v10h260v-10c-35.333 0 -58.333 -7.33301 -69 -22c-7.33301 -10 -11 -29.333 -11 -58v-450v0c0 -42 9 -79 27 -111c21.333 -38.667 48.333 -58.334 81 -59.001h4h64c50 0 92.5 17.5 127.5 52.5
s52.5 77.5 52.5 127.5v440c0 29.333 -6.33301 50 -19 62c-12 12 -32.333 18 -61 18v10h170zM451 927.001c-10 0 -18.6689 -4 -26.002 -12c-1.33301 -1.33301 -3 -3.33301 -5 -6c-8.66699 -10.667 -18 -24 -28 -40c-15.333 -24 -24 -42.333 -26 -55
c-0.666992 -6 0.5 -10.167 3.5 -12.5s7.5 -2.5 13.5 -0.5c10.667 4 24 13.833 40 29.5s29.333 30.5 40 44.5c2 1.33301 3.66699 3.33301 5 6c4.66699 7.33301 6.83398 15 6.50098 23s-3.16602 14 -8.49902 18c-4 3.33301 -9 5 -15 5z" />
    <glyph glyph-name="Ucircumflex" unicode="&#xdb;" 
d="M676 720v-9.99902c-27.333 0 -47.333 -6.33301 -60 -19c-13.333 -12.667 -20 -33 -20 -61v-440c0 -52.667 -18.5 -97.5 -55.5 -134.5s-81.833 -55.5 -134.5 -55.5h-64h-4c-62.667 0.666992 -114.667 21 -156 61c-34.667 34 -52 73.667 -52 119v450
c0 29.333 -3.66699 49 -11 59c-11.333 14 -34.333 21 -69 21v10h260v-10c-35.333 0 -58.333 -7.33301 -69 -22c-7.33301 -10 -11 -29.333 -11 -58v-450v0c0 -42 9 -79 27 -111c21.333 -38.667 48.333 -58.334 81 -59.001h4h64c50 0 92.5 17.5 127.5 52.5
s52.5 77.5 52.5 127.5v440c0 29.333 -6.33301 50 -19 62c-12 12 -32.333 18 -61 18v10h170zM372 1002l-111 -182l34 -21l100 165l100 -165l34 21l-110 182h-47z" />
    <glyph glyph-name="Udieresis" unicode="&#xdc;" 
d="M676 720v-9.99902c-27.333 0 -47.333 -6.33301 -60 -19c-13.333 -12.667 -20 -33 -20 -61v-440c0 -52.667 -18.5 -97.5 -55.5 -134.5s-81.833 -55.5 -134.5 -55.5h-64h-4c-62.667 0.666992 -114.667 21 -156 61c-34.667 34 -52 73.667 -52 119v450
c0 29.333 -3.66699 49 -11 59c-11.333 14 -34.333 21 -69 21v10h260v-10c-35.333 0 -58.333 -7.33301 -69 -22c-7.33301 -10 -11 -29.333 -11 -58v-450v0c0 -42 9 -79 27 -111c21.333 -38.667 48.333 -58.334 81 -59.001h4h64c50 0 92.5 17.5 127.5 52.5
s52.5 77.5 52.5 127.5v440c0 29.333 -6.33301 50 -19 62c-12 12 -32.333 18 -61 18v10h170zM314 900.001c-14 0 -25.833 -4.83301 -35.5 -14.5s-14.5 -21.5 -14.5 -35.5s4.83301 -25.833 14.5 -35.5s21.5 -14.5 35.5 -14.5s25.833 4.83301 35.5 14.5s14.5 21.5 14.5 35.5
s-4.83301 25.833 -14.5 35.5s-21.5 14.5 -35.5 14.5zM494 900.001c-14 0 -25.833 -4.83301 -35.5 -14.5s-14.5 -21.5 -14.5 -35.5s4.83301 -25.833 14.5 -35.5s21.5 -14.5 35.5 -14.5s25.833 4.83301 35.5 14.5s14.5 21.5 14.5 35.5s-4.83301 25.833 -14.5 35.5
s-21.5 14.5 -35.5 14.5z" />
    <glyph glyph-name="Yacute" unicode="&#xdd;" horiz-adv-x="690" 
d="M435 928c-10 0 -19 -4.33203 -27 -12.999c-1.33301 -1.33301 -2.66602 -3 -3.99902 -5c-8.66699 -10.667 -18.334 -24.334 -29.001 -41.001c-14.667 -24 -23 -42 -25 -54c-1.33301 -6.66699 -0.5 -11 2.5 -13s7.83301 -2 14.5 0c10.667 4 24 13.833 40 29.5
s29.333 30.5 40 44.5c1.33301 1.33301 2.66602 3 3.99902 5c5.33301 7.33301 7.83301 15 7.5 23s-3.16602 14.333 -8.49902 19c-4.66699 3.33301 -9.66699 5 -15 5zM50 720.001v-10.001c26 0 46 -4 60 -12c14 -7.33301 24.333 -19 31 -35l169 -375v-198
c0 -28.667 -3.66699 -48 -11 -58c-10.667 -14.667 -33.667 -22 -69 -22v-10h80h100h80v10c-34.667 0 -57.667 7 -69 21c-7.33301 10 -11 29.667 -11 59v266l138 307c6.66699 16 17.167 27.833 31.5 35.5s34.5 11.5 60.5 11.5v10h-150v-10c23.333 0 39 -4 47 -12
c7.33301 -8 7.66602 -19 0.999023 -33l-144 -320l-143 317c-6.66699 18.667 -7 31.334 -1 38.001c6.66699 6.66699 23.334 10 50.001 10v10h-250z" />
    <glyph glyph-name="agrave" unicode="&#xe0;" 
d="M338 928c-6 0 -11.002 -1.66699 -15.002 -5c-5.33301 -4.66699 -8.16602 -11 -8.49902 -19s1.83398 -15.667 6.50098 -23c1.33301 -2 3 -4 5 -6c10.667 -14 24 -28.833 40 -44.5s29.333 -25.5 40 -29.5c6 -2 10.5 -1.83301 13.5 0.5s4.16699 6.5 3.5 12.5
c-2 12.667 -10.667 31 -26 55c-10 16 -19.333 29.333 -28 40c-2 2.66699 -3.66699 4.66699 -5 6c-7.33301 8.66699 -16 13 -26 13zM390.998 720l-48 -128.001l-187 -502c-13.333 -30.667 -25.666 -51 -36.999 -61c-14 -12.667 -37 -19 -69 -19v-10h160v10
c-31.333 0 -49.333 7 -54 21c-3.33301 8.66699 0 28.334 10 59.001l42 110h282l41 -111c10 -20 12.667 -36.667 8 -50c-6.66699 -19.333 -26.334 -29 -59.001 -29v-10h260v10c-36 0 -62 9.33301 -78 28c-7.33301 8.66699 -15.333 25.667 -24 51l-236 631h-11z
M348.998 577.999l137 -368h-275z" />
    <glyph glyph-name="aacute" unicode="&#xe1;" 
d="M435 928c-10 0 -19 -4.33203 -27 -12.999c-1.33301 -1.33301 -2.66602 -3 -3.99902 -5c-8.66699 -10.667 -18.334 -24.334 -29.001 -41.001c-14.667 -24 -23 -42 -25 -54c-1.33301 -6.66699 -0.5 -11 2.5 -13s7.83301 -2 14.5 0c10.667 4 24 13.833 40 29.5
s29.333 30.5 40 44.5c1.33301 1.33301 2.66602 3 3.99902 5c5.33301 7.33301 7.83301 15 7.5 23s-3.16602 14.333 -8.49902 19c-4.66699 3.33301 -9.66699 5 -15 5zM391 720.001l-48 -128.001l-187 -502c-13.333 -30.667 -25.666 -51 -36.999 -61
c-14 -12.667 -37 -19 -69 -19v-10h160v10c-31.333 0 -49.333 7 -54 21c-3.33301 8.66699 0 28.334 10 59.001l42 110h282l41 -111c10 -20 12.667 -36.667 8 -50c-6.66699 -19.333 -26.334 -29 -59.001 -29v-10h260v10c-36 0 -62 9.33301 -78 28
c-7.33301 8.66699 -15.333 25.667 -24 51l-236 631h-11zM349 578l137 -368h-275z" />
    <glyph glyph-name="acircumflex" unicode="&#xe2;" 
d="M373 1004l-111 -183l34 -21l100 165l100 -165l34 21l-111 183h-46zM391 720l-48 -128.001l-187 -502c-13.333 -30.667 -25.666 -51 -36.999 -61c-14 -12.667 -37 -19 -69 -19v-10h160v10c-31.333 0 -49.333 7 -54 21c-3.33301 8.66699 0 28.334 10 59.001l42 110h282
l41 -111c10 -20 12.667 -36.667 8 -50c-6.66699 -19.333 -26.334 -29 -59.001 -29v-10h260v10c-36 0 -62 9.33301 -78 28c-7.33301 8.66699 -15.333 25.667 -24 51l-236 631h-11zM349 577.999l137 -368h-275z" />
    <glyph glyph-name="atilde" unicode="&#xe3;" 
d="M354 880c-26 0 -43.666 -18.6689 -52.999 -56.002l2 -5c12 6.66699 26 9 42 7c10 -1.33301 25.333 -5.83301 46 -13.5s35.667 -12.167 45 -13.5c28 -3.33301 46.667 13.334 56 50.001l-2 4c-2.66699 -1.33301 -5.33398 -2.33301 -8.00098 -3s-5.5 -1 -8.5 -1h-8.5
c-2.66699 0 -5.83398 0.5 -9.50098 1.5l-9 2.5l-10 3c-4.33301 1.33301 -7.66602 2.5 -9.99902 3.5s-6 2.33301 -11 4s-8.16699 2.83398 -9.5 3.50098c-22.667 8.66699 -40 13 -52 13zM391.001 719.998l-48 -128.001l-187 -502c-13.333 -30.667 -25.666 -51 -36.999 -61
c-14 -12.667 -37 -19 -69 -19v-10h160v10c-31.333 0 -49.333 7 -54 21c-3.33301 8.66699 0 28.334 10 59.001l42 110h282l41 -111c10 -20 12.667 -36.667 8 -50c-6.66699 -19.333 -26.334 -29 -59.001 -29v-10h260v10c-36 0 -62 9.33301 -78 28
c-7.33301 8.66699 -15.333 25.667 -24 51l-236 631h-11zM349.001 577.997l137 -368h-275z" />
    <glyph glyph-name="adieresis" unicode="&#xe4;" 
d="M304 900c-14 0 -25.833 -4.83301 -35.5 -14.5s-14.5 -21.5 -14.5 -35.5s4.83301 -25.833 14.5 -35.5s21.5 -14.5 35.5 -14.5s25.833 4.83301 35.5 14.5s14.5 21.5 14.5 35.5s-4.83301 25.833 -14.5 35.5s-21.5 14.5 -35.5 14.5zM484 900
c-14 0 -25.833 -4.83301 -35.5 -14.5s-14.5 -21.5 -14.5 -35.5s4.83301 -25.833 14.5 -35.5s21.5 -14.5 35.5 -14.5s25.833 4.83301 35.5 14.5s14.5 21.5 14.5 35.5s-4.83301 25.833 -14.5 35.5s-21.5 14.5 -35.5 14.5zM391 720l-48 -128.001l-187 -502
c-13.333 -30.667 -25.666 -51 -36.999 -61c-14 -12.667 -37 -19 -69 -19v-10h160v10c-31.333 0 -49.333 7 -54 21c-3.33301 8.66699 0 28.334 10 59.001l42 110h282l41 -111c10 -20 12.667 -36.667 8 -50c-6.66699 -19.333 -26.334 -29 -59.001 -29v-10h260v10
c-36 0 -62 9.33301 -78 28c-7.33301 8.66699 -15.333 25.667 -24 51l-236 631h-11zM349 577.999l137 -368h-275z" />
    <glyph glyph-name="aring" unicode="&#xe5;" 
d="M396.5 900c-27.667 0 -51.333 -9.00098 -71 -27.001s-29.5 -39.667 -29.5 -65c0 -24.667 9 -45.834 27 -63.501s40 -27.5 66 -29.5l-46 -123l-187 -502c-13.333 -30.667 -25.666 -51 -36.999 -61c-14 -12.667 -37 -19 -69 -19v-10h160v10c-31.333 0 -49.333 7 -54 21
c-3.33301 8.66699 0 28.334 10 59.001l42 110h282l41 -111c10 -20 12.667 -36.667 8 -50c-6.66699 -19.333 -26.334 -29 -59.001 -29v-10h260v10c-36 0 -62 9.33301 -78 28c-7.33301 8.66699 -15.333 25.667 -24 51l-234 626c26 2 47.833 11.833 65.5 29.5
s26.5 38.834 26.5 63.501c0 25.333 -9.66699 47 -29 65s-42.833 27 -70.5 27zM396.001 894.999c14 0 27.167 -8.66699 39.5 -26s18.5 -37.833 18.5 -61.5s-6.16699 -44.167 -18.5 -61.5s-25.5 -26 -39.5 -26s-27 8.66699 -39 26s-18 37.833 -18 61.5s6 44.167 18 61.5
s25 26 39 26zM349.001 577.999l137 -368h-275z" />
    <glyph glyph-name="ae" unicode="&#xe6;" horiz-adv-x="1118" 
d="M460 720l0.000976562 -10.001c30 0 49.333 -4 58 -12c10.667 -9.33301 9 -25.333 -5 -48l-362 -586c-14 -22.667 -28.667 -37.667 -44 -45c-12.667 -6 -31.667 -9 -57 -9v-10h140v10c-24.667 0 -38.334 4.33301 -41.001 13c-2.66699 6.66699 1.66602 19.667 12.999 39
l79 128h319v-100c0 -28.667 -3.33301 -48 -10 -58c-11.333 -14.667 -34.666 -22 -69.999 -22v-10h180h368l40 210h-10c-15.333 -75.333 -37.666 -128.333 -66.999 -159c-26 -27.333 -62 -41 -108 -41h-223v80v260h160c38.667 0 65.667 -4.66699 81 -14
c11.333 -6.66699 19 -16.667 23 -30s6 -32 6 -56h10v210h-10c0 -37.333 -5.66699 -62.666 -17 -75.999c-13.333 -16 -44 -24 -92 -24h-161v270v80h205c49.333 0 84.666 -12.333 105.999 -37c24 -28 38.333 -82.333 43 -163h10l-12 210h-552zM561.001 708.999l-1 -79v-430
h-313z" />
    <glyph glyph-name="ccedilla" unicode="&#xe7;" horiz-adv-x="715" 
d="M410 720c-65.333 0 -125.667 -16.0049 -181 -48.0049s-99 -75.667 -131 -131s-48 -115.666 -48 -180.999s16 -125.5 48 -180.5s75.667 -98.667 131 -131s115.333 -48.5 180 -48.5l-18 -54c3.33301 -2 6.33301 -4 9 -6c16 -13.333 24 -31.333 24 -54
c0 -18 -5.66699 -33.5 -17 -46.5s-25 -19.5 -41 -19.5v-8c44 -0.666992 77.333 4.33301 100 15s34 30.334 34 59.001c0 24 -7.5 41.333 -22.5 52s-38.833 17.334 -71.5 20.001l14 42c35.333 0.666992 75.833 7.33398 121.5 20.001s72.5 19.334 80.5 20.001
c11.333 0.666992 19.666 -2 24.999 -8s8 -16.667 8 -32h10v210h-10c0 -36 -7.16699 -67.5 -21.5 -94.5s-33.666 -47.833 -57.999 -62.5s-50.333 -25.5 -78 -32.5s-56.834 -10.5 -87.501 -10.5c-47.333 0 -90.833 15.667 -130.5 47s-71.167 73.833 -94.5 127.5
s-35 112.167 -35 175.5s11.667 121.833 35 175.5s54.833 96.167 94.5 127.5s83.167 47 130.5 47c30.667 0 59.834 -3.5 87.501 -10.5s53.667 -18 78 -33s43.666 -35.833 57.999 -62.5s21.5 -58 21.5 -94h10v210h-10c0 -15.333 -2.66699 -26 -8 -32
s-13.666 -8.66699 -24.999 -8c-6.66699 0 -34.167 6.66699 -82.5 20s-91.5 20 -129.5 20z" />
    <glyph glyph-name="egrave" unicode="&#xe8;" horiz-adv-x="688" 
d="M50 720l0.00195312 -10.001c35.333 0 58.333 -7.33301 69 -22c7.33301 -10 11 -29.333 11 -58v-540c0 -28.667 -3.66699 -48 -11 -58c-10.667 -14.667 -33.667 -22 -69 -22v-10h180h368l40 210h-10c-16 -75.333 -38.333 -128.333 -67 -159
c-26 -27.333 -62.333 -41 -109 -41h-222v80v260h159c39.333 0 66.333 -4.66699 81 -14c11.333 -6.66699 19.166 -16.667 23.499 -30s6.5 -32 6.5 -56h10v210h-10c0 -37.333 -5.66699 -62.666 -17 -75.999c-14 -16 -45 -24 -93 -24h-160v270v80h204
c49.333 0 84.666 -12.333 105.999 -37c24 -28 38.667 -82.333 44 -163h10l-12 210h-352h-180zM312.002 927.999c-6 0 -11.002 -1.66699 -15.002 -5c-5.33301 -4.66699 -8.16602 -11 -8.49902 -19s1.83398 -15.667 6.50098 -23c1.33301 -2 3 -4 5 -6
c10.667 -14 24 -28.833 40 -44.5s29.333 -25.5 40 -29.5c6 -2 10.5 -1.83301 13.5 0.5s4.16699 6.5 3.5 12.5c-2 12.667 -10.667 31 -26 55c-10 16 -19.333 29.333 -28 40c-2 2.66699 -3.66699 4.66699 -5 6c-7.33301 8.66699 -16 13 -26 13z" />
    <glyph glyph-name="eacute" unicode="&#xe9;" horiz-adv-x="688" 
d="M50 720l0.00195312 -10.001c35.333 0 58.333 -7.33301 69 -22c7.33301 -10 11 -29.333 11 -58v-540c0 -28.667 -3.66699 -48 -11 -58c-10.667 -14.667 -33.667 -22 -69 -22v-10h180h368l40 210h-10c-16 -75.333 -38.333 -128.333 -67 -159
c-26 -27.333 -62.333 -41 -109 -41h-222v80v260h159c39.333 0 66.333 -4.66699 81 -14c11.333 -6.66699 19.166 -16.667 23.499 -30s6.5 -32 6.5 -56h10v210h-10c0 -37.333 -5.66699 -62.666 -17 -75.999c-14 -16 -45 -24 -93 -24h-160v270v80h204
c49.333 0 84.666 -12.333 105.999 -37c24 -28 38.667 -82.333 44 -163h10l-12 210h-352h-180zM416.002 927.999c-10 0 -19 -4.33203 -27 -12.999c-1.33301 -1.33301 -2.66602 -3 -3.99902 -5c-8.66699 -10.667 -18.334 -24.334 -29.001 -41.001c-14.667 -24 -23 -42 -25 -54
c-1.33301 -6.66699 -0.5 -11 2.5 -13s7.83301 -2 14.5 0c10.667 4 24 13.833 40 29.5s29.333 30.5 40 44.5c1.33301 1.33301 2.66602 3 3.99902 5c5.33301 7.33301 7.83301 15 7.5 23s-3.16602 14.333 -8.49902 19c-4.66699 3.33301 -9.66699 5 -15 5z" />
    <glyph glyph-name="ecircumflex" unicode="&#xea;" horiz-adv-x="688" 
d="M50 720l0.00195312 -10.001c35.333 0 58.333 -7.33301 69 -22c7.33301 -10 11 -29.333 11 -58v-540c0 -28.667 -3.66699 -48 -11 -58c-10.667 -14.667 -33.667 -22 -69 -22v-10h180h368l40 210h-10c-16 -75.333 -38.333 -128.333 -67 -159
c-26 -27.333 -62.333 -41 -109 -41h-222v80v260h159c39.333 0 66.333 -4.66699 81 -14c11.333 -6.66699 19.166 -16.667 23.499 -30s6.5 -32 6.5 -56h10v210h-10c0 -37.333 -5.66699 -62.666 -17 -75.999c-14 -16 -45 -24 -93 -24h-160v270v80h204
c49.333 0 84.666 -12.333 105.999 -37c24 -28 38.667 -82.333 44 -163h10l-12 210h-352h-180zM324.002 1004l-111 -183l34 -21l100 165l100 -165l34 21l-111 183h-46z" />
    <glyph glyph-name="edieresis" unicode="&#xeb;" horiz-adv-x="688" 
d="M50 720l0.00195312 -10.001c35.333 0 58.333 -7.33301 69 -22c7.33301 -10 11 -29.333 11 -58v-540c0 -28.667 -3.66699 -48 -11 -58c-10.667 -14.667 -33.667 -22 -69 -22v-10h180h368l40 210h-10c-16 -75.333 -38.333 -128.333 -67 -159
c-26 -27.333 -62.333 -41 -109 -41h-222v80v260h159c39.333 0 66.333 -4.66699 81 -14c11.333 -6.66699 19.166 -16.667 23.499 -30s6.5 -32 6.5 -56h10v210h-10c0 -37.333 -5.66699 -62.666 -17 -75.999c-14 -16 -45 -24 -93 -24h-160v270v80h204
c49.333 0 84.666 -12.333 105.999 -37c24 -28 38.667 -82.333 44 -163h10l-12 210h-352h-180zM254.002 899.999c-14 0 -25.833 -4.83301 -35.5 -14.5s-14.5 -21.5 -14.5 -35.5s4.83301 -25.833 14.5 -35.5s21.5 -14.5 35.5 -14.5s25.833 4.83301 35.5 14.5
s14.5 21.5 14.5 35.5s-4.83301 25.833 -14.5 35.5s-21.5 14.5 -35.5 14.5zM434.002 899.999c-14 0 -25.833 -4.83301 -35.5 -14.5s-14.5 -21.5 -14.5 -35.5s4.83301 -25.833 14.5 -35.5s21.5 -14.5 35.5 -14.5s25.833 4.83301 35.5 14.5s14.5 21.5 14.5 35.5
s-4.83301 25.833 -14.5 35.5s-21.5 14.5 -35.5 14.5z" />
    <glyph glyph-name="igrave" unicode="&#xec;" horiz-adv-x="360" 
d="M50 720v-10c35.333 0 58.333 -7.33301 69 -22c7.33301 -10 11 -29.333 11 -58v-540c0 -28.667 -3.66699 -48 -11 -58c-10.667 -14.667 -33.667 -22 -69 -22v-10h260v10c-34.667 0 -57.667 7 -69 21c-7.33301 10 -11 29.667 -11 59v540c0 29.333 3.66699 49 11 59
c11.333 14 34.333 21 69 21v10h-260zM145 928c-6 0 -11.002 -1.66699 -15.002 -5c-5.33301 -4.66699 -8.16602 -11 -8.49902 -19s1.83398 -15.667 6.50098 -23c1.33301 -2 3 -4 5 -6c10.667 -14 24 -28.833 40 -44.5s29.333 -25.5 40 -29.5c6 -2 10.5 -1.83301 13.5 0.5
s4.16699 6.5 3.5 12.5c-2 12.667 -10.667 31 -26 55c-10 16 -19.333 29.333 -28 40c-2 2.66699 -3.66699 4.66699 -5 6c-7.33301 8.66699 -16 13 -26 13z" />
    <glyph glyph-name="iacute" unicode="&#xed;" horiz-adv-x="360" 
d="M50 720v-10c35.333 0 58.333 -7.33301 69 -22c7.33301 -10 11 -29.333 11 -58v-540c0 -28.667 -3.66699 -48 -11 -58c-10.667 -14.667 -33.667 -22 -69 -22v-10h260v10c-34.667 0 -57.667 7 -69 21c-7.33301 10 -11 29.667 -11 59v540c0 29.333 3.66699 49 11 59
c11.333 14 34.333 21 69 21v10h-260zM233 928c-10 0 -19 -4.33203 -27 -12.999c-1.33301 -1.33301 -2.66602 -3 -3.99902 -5c-8.66699 -10.667 -18.334 -24.334 -29.001 -41.001c-14.667 -24 -23 -42 -25 -54c-1.33301 -6.66699 -0.5 -11 2.5 -13s7.83301 -2 14.5 0
c10.667 4 24 13.833 40 29.5s29.333 30.5 40 44.5c1.33301 1.33301 2.66602 3 3.99902 5c5.33301 7.33301 7.83301 15 7.5 23s-3.16602 14.333 -8.49902 19c-4.66699 3.33301 -9.66699 5 -15 5z" />
    <glyph glyph-name="icircumflex" unicode="&#xee;" horiz-adv-x="368" 
d="M57 720v-10c35.333 0 58.333 -7.33301 69 -22c7.33301 -10 11 -29.333 11 -58v-540c0 -28.667 -3.66699 -48 -11 -58c-10.667 -14.667 -33.667 -22 -69 -22v-10h260v10c-34.667 0 -57.667 7 -69 21c-7.33301 10 -11 29.667 -11 59v540c0 29.333 3.66699 49 11 59
c11.333 14 34.333 21 69 21v10h-260zM161 1003l-111 -182l34 -21l100 165l100 -165l34 21l-111 182h-46z" />
    <glyph glyph-name="idieresis" unicode="&#xef;" horiz-adv-x="380" 
d="M59 720v-10c35.333 0 58.333 -7.33301 69 -22c7.33301 -10 11 -29.333 11 -58v-540c0 -28.667 -3.66699 -48 -11 -58c-10.667 -14.667 -33.667 -22 -69 -22v-10h260v10c-34.667 0 -57.667 7 -69 21c-7.33301 10 -11 29.667 -11 59v540c0 29.333 3.66699 49 11 59
c11.333 14 34.333 21 69 21v10h-260zM100 902c-14 0 -25.833 -4.83301 -35.5 -14.5s-14.5 -21.5 -14.5 -35.5s4.83301 -25.833 14.5 -35.5s21.5 -14.5 35.5 -14.5s25.833 4.83301 35.5 14.5s14.5 21.5 14.5 35.5s-4.83301 25.833 -14.5 35.5s-21.5 14.5 -35.5 14.5zM280 902
c-14 0 -25.833 -4.83301 -35.5 -14.5s-14.5 -21.5 -14.5 -35.5s4.83301 -25.833 14.5 -35.5s21.5 -14.5 35.5 -14.5s25.833 4.83301 35.5 14.5s14.5 21.5 14.5 35.5s-4.83301 25.833 -14.5 35.5s-21.5 14.5 -35.5 14.5z" />
    <glyph glyph-name="eth" unicode="&#xf0;" horiz-adv-x="780" 
d="M50 720v-9.99805c35.333 0 58.333 -7.33301 69 -22c7.33301 -10 11 -29.333 11 -58v-260h-75v-20h75v-260c0 -28.667 -3.66699 -48 -11 -58c-10.667 -14.667 -33.667 -22 -69 -22v-10h180h140c99.333 0 184.166 35.167 254.499 105.5s105.5 155.166 105.5 254.499
s-35.167 184.166 -105.5 254.499s-155.166 105.5 -254.499 105.5h-140h-180zM230 710.002h140v0c47.333 0 90.833 -15.667 130.5 -47s71.167 -73.833 94.5 -127.5s35 -112.167 35 -175.5s-11.667 -121.833 -35 -175.5s-54.833 -96.167 -94.5 -127.5s-83.167 -47 -130.5 -47
v0h-140v80v260h205v20h-205v260v80z" />
    <glyph glyph-name="ntilde" unicode="&#xf1;" horiz-adv-x="730" 
d="M326 880c-26 0 -43.666 -18.6689 -52.999 -56.002l2 -5c12 6.66699 26 9 42 7c10 -1.33301 25.333 -5.83301 46 -13.5s35.667 -12.167 45 -13.5c28 -3.33301 46.667 13.334 56 50.001l-2 4c-2.66699 -1.33301 -5.33398 -2.33301 -8.00098 -3s-5.5 -1 -8.5 -1h-8.5
c-2.66699 0 -5.83398 0.5 -9.50098 1.5l-9 2.5l-10 3c-4.33301 1.33301 -7.66602 2.5 -9.99902 3.5s-6 2.33301 -11 4s-8.16699 2.83398 -9.5 3.50098c-22.667 8.66699 -40 13 -52 13zM50.001 719.998v-10c27.333 0 47.333 -6.33301 60 -19c13.333 -12.667 20 -33 20 -61
v-540c0 -28 -6.66699 -48.333 -20 -61c-12.667 -12.667 -32.667 -19 -60 -19v-10h170v10c-28.667 0 -49 6 -61 18c-12.667 12 -19 32.667 -19 62v562l445 -652h15v630c0 28 6.66699 48.333 20 61c12.667 12.667 32.667 19 60 19v10h-170v-10c28.667 0 49 -6 61 -18
c12.667 -12 19 -32.667 19 -62v-461l-376 551h-164z" />
    <glyph glyph-name="ograve" unicode="&#xf2;" horiz-adv-x="739" 
d="M370 720c-58 0 -111.5 -16 -160.5 -48s-87.833 -75.667 -116.5 -131s-43 -115.666 -43 -180.999s14.333 -125.666 43 -180.999s67.5 -99 116.5 -131s102.5 -48 160.5 -48s111.5 16 160.5 48s87.833 75.667 116.5 131s43 115.666 43 180.999s-14.333 125.666 -43 180.999
s-67.5 99 -116.5 131s-102.5 48 -160.5 48zM370 710c41.333 0 78.833 -15.667 112.5 -47s59.834 -73.666 78.501 -126.999s28 -112 28 -176s-9.33301 -122.667 -28 -176s-44.834 -95.666 -78.501 -126.999s-71.167 -47 -112.5 -47s-78.833 15.667 -112.5 47
s-59.834 73.666 -78.501 126.999s-28 112 -28 176s9.33301 122.667 28 176s44.834 95.666 78.501 126.999s71.167 47 112.5 47zM329 928c-6 0 -11.001 -1.66797 -15.001 -5.00098c-5.33301 -4.66699 -8.16602 -11 -8.49902 -19s2.16699 -15.667 7.5 -23
c1.33301 -2 2.66602 -3.66699 3.99902 -5c10.667 -14 24 -28.833 40 -44.5s29.333 -25.5 40 -29.5c6.66699 -2 11.334 -2 14.001 0s3.66699 6.33301 3 13c-2 12 -10.667 30 -26 54c-10 16.667 -19.333 30.334 -28 41.001c-2 2 -3.33301 3.66699 -4 5
c-8 8.66699 -17 13 -27 13z" />
    <glyph glyph-name="oacute" unicode="&#xf3;" horiz-adv-x="739" 
d="M370 720c-58 0 -111.5 -16 -160.5 -48s-87.833 -75.667 -116.5 -131s-43 -115.666 -43 -180.999s14.333 -125.666 43 -180.999s67.5 -99 116.5 -131s102.5 -48 160.5 -48s111.5 16 160.5 48s87.833 75.667 116.5 131s43 115.666 43 180.999s-14.333 125.666 -43 180.999
s-67.5 99 -116.5 131s-102.5 48 -160.5 48zM370 710c41.333 0 78.833 -15.667 112.5 -47s59.834 -73.666 78.501 -126.999s28 -112 28 -176s-9.33301 -122.667 -28 -176s-44.834 -95.666 -78.501 -126.999s-71.167 -47 -112.5 -47s-78.833 15.667 -112.5 47
s-59.834 73.666 -78.501 126.999s-28 112 -28 176s9.33301 122.667 28 176s44.834 95.666 78.501 126.999s71.167 47 112.5 47zM420 927c-10 0 -18.6689 -4 -26.002 -12c-1.33301 -1.33301 -3 -3.33301 -5 -6c-8.66699 -10.667 -18 -24 -28 -40
c-15.333 -24 -24 -42.333 -26 -55c-0.666992 -6 0.5 -10.167 3.5 -12.5s7.5 -2.5 13.5 -0.5c10.667 4 24 13.833 40 29.5s29.333 30.5 40 44.5c2 1.33301 3.66699 3.33301 5 6c4.66699 7.33301 6.83398 15 6.50098 23s-3.16602 14 -8.49902 18c-4 3.33301 -9 5 -15 5z" />
    <glyph glyph-name="ocircumflex" unicode="&#xf4;" horiz-adv-x="739" 
d="M370 720c-58 0 -111.5 -16 -160.5 -48s-87.833 -75.667 -116.5 -131s-43 -115.666 -43 -180.999s14.333 -125.666 43 -180.999s67.5 -99 116.5 -131s102.5 -48 160.5 -48s111.5 16 160.5 48s87.833 75.667 116.5 131s43 115.666 43 180.999s-14.333 125.666 -43 180.999
s-67.5 99 -116.5 131s-102.5 48 -160.5 48zM370 710c41.333 0 78.833 -15.667 112.5 -47s59.834 -73.666 78.501 -126.999s28 -112 28 -176s-9.33301 -122.667 -28 -176s-44.834 -95.666 -78.501 -126.999s-71.167 -47 -112.5 -47s-78.833 15.667 -112.5 47
s-59.834 73.666 -78.501 126.999s-28 112 -28 176s9.33301 122.667 28 176s44.834 95.666 78.501 126.999s71.167 47 112.5 47zM348 1002l-111 -182l34 -21l100 165l100 -165l34 21l-110 182h-47z" />
    <glyph glyph-name="otilde" unicode="&#xf5;" horiz-adv-x="739" 
d="M343 880c-26 0 -43.666 -18.6689 -52.999 -56.002l2 -5c12 6.66699 26 9 42 7c10 -1.33301 25.333 -5.83301 46 -13.5s35.667 -12.167 45 -13.5c28 -3.33301 46.667 13.334 56 50.001l-2 4c-2.66699 -1.33301 -5.33398 -2.33301 -8.00098 -3s-5.5 -1 -8.5 -1h-8.5
c-2.66699 0 -5.83398 0.5 -9.50098 1.5l-9 2.5l-10 3c-4.33301 1.33301 -7.66602 2.5 -9.99902 3.5s-6 2.33301 -11 4s-8.16699 2.83398 -9.5 3.50098c-22.667 8.66699 -40 13 -52 13zM370.001 719.998c-58 0 -111.5 -16 -160.5 -48s-87.833 -75.667 -116.5 -131
s-43 -115.666 -43 -180.999s14.333 -125.666 43 -180.999s67.5 -99 116.5 -131s102.5 -48 160.5 -48s111.5 16 160.5 48s87.833 75.667 116.5 131s43 115.666 43 180.999s-14.333 125.666 -43 180.999s-67.5 99 -116.5 131s-102.5 48 -160.5 48zM370.001 709.998
c41.333 0 78.833 -15.667 112.5 -47s59.834 -73.666 78.501 -126.999s28 -112 28 -176s-9.33301 -122.667 -28 -176s-44.834 -95.666 -78.501 -126.999s-71.167 -47 -112.5 -47s-78.833 15.667 -112.5 47s-59.834 73.666 -78.501 126.999s-28 112 -28 176
s9.33301 122.667 28 176s44.834 95.666 78.501 126.999s71.167 47 112.5 47z" />
    <glyph glyph-name="odieresis" unicode="&#xf6;" horiz-adv-x="739" 
d="M370 720c-58 0 -111.5 -16 -160.5 -48s-87.833 -75.667 -116.5 -131s-43 -115.666 -43 -180.999s14.333 -125.666 43 -180.999s67.5 -99 116.5 -131s102.5 -48 160.5 -48s111.5 16 160.5 48s87.833 75.667 116.5 131s43 115.666 43 180.999s-14.333 125.666 -43 180.999
s-67.5 99 -116.5 131s-102.5 48 -160.5 48zM370 710c41.333 0 78.833 -15.667 112.5 -47s59.834 -73.666 78.501 -126.999s28 -112 28 -176s-9.33301 -122.667 -28 -176s-44.834 -95.666 -78.501 -126.999s-71.167 -47 -112.5 -47s-78.833 15.667 -112.5 47
s-59.834 73.666 -78.501 126.999s-28 112 -28 176s9.33301 122.667 28 176s44.834 95.666 78.501 126.999s71.167 47 112.5 47zM277 900c-14 0 -25.833 -4.83301 -35.5 -14.5s-14.5 -21.5 -14.5 -35.5s4.83301 -25.833 14.5 -35.5s21.5 -14.5 35.5 -14.5
s25.833 4.83301 35.5 14.5s14.5 21.5 14.5 35.5s-4.83301 25.833 -14.5 35.5s-21.5 14.5 -35.5 14.5zM457 900c-14 0 -25.833 -4.83301 -35.5 -14.5s-14.5 -21.5 -14.5 -35.5s4.83301 -25.833 14.5 -35.5s21.5 -14.5 35.5 -14.5s25.833 4.83301 35.5 14.5
s14.5 21.5 14.5 35.5s-4.83301 25.833 -14.5 35.5s-21.5 14.5 -35.5 14.5z" />
    <glyph glyph-name="oslash" unicode="&#xf8;" horiz-adv-x="1024" 
d="M631 742l-49 -77.001c-52 36.667 -109 55 -171 55c-58 0 -111.5 -16 -160.5 -48s-87.833 -75.667 -116.5 -131s-43 -115.666 -43 -180.999c0 -55.333 10.5 -107.166 31.5 -155.499s49.833 -89.5 86.5 -123.5l-52 -81l34 -21l49 77c52 -37.333 109 -56 171 -56
c58 0 111.5 16 160.5 48s87.833 75.667 116.5 131s43 115.666 43 180.999c0 55.333 -10.5 107.333 -31.5 156s-49.833 89.667 -86.5 123l52 81zM411 709.999c56.667 0 105.332 -28.333 145.999 -85l-315 -492c-33.333 64.667 -50 140.334 -50 227.001
c0 64 9.33301 122.667 28 176s44.834 95.666 78.501 126.999s71.167 47 112.5 47zM579.998 586.999c33.333 -64 50.002 -139.668 50.002 -227.001c0 -64 -9.33301 -122.667 -28 -176s-44.834 -95.666 -78.501 -126.999s-71.167 -47 -112.5 -47
c-56.667 0 -105.334 28.333 -146.001 85z" />
    <glyph glyph-name="ugrave" unicode="&#xf9;" 
d="M676 720v-9.99902c-27.333 0 -47.333 -6.33301 -60 -19c-13.333 -12.667 -20 -33 -20 -61v-440c0 -52.667 -18.5 -97.5 -55.5 -134.5s-81.833 -55.5 -134.5 -55.5h-64h-4c-62.667 0.666992 -114.667 21 -156 61c-34.667 34 -52 73.667 -52 119v450
c0 29.333 -3.66699 49 -11 59c-11.333 14 -34.333 21 -69 21v10h260v-10c-35.333 0 -58.333 -7.33301 -69 -22c-7.33301 -10 -11 -29.333 -11 -58v-450v0c0 -42 9 -79 27 -111c21.333 -38.667 48.333 -58.334 81 -59.001h4h64c50 0 92.5 17.5 127.5 52.5
s52.5 77.5 52.5 127.5v440c0 29.333 -6.33301 50 -19 62c-12 12 -32.333 18 -61 18v10h170zM329 928.001c-6 0 -11.001 -1.66797 -15.001 -5.00098c-5.33301 -4.66699 -8.16602 -11 -8.49902 -19s2.16699 -15.667 7.5 -23c1.33301 -2 2.66602 -3.66699 3.99902 -5
c10.667 -14 24 -28.833 40 -44.5s29.333 -25.5 40 -29.5c6.66699 -2 11.334 -2 14.001 0s3.66699 6.33301 3 13c-2 12 -10.667 30 -26 54c-10 16.667 -19.333 30.334 -28 41.001c-2 2 -3.33301 3.66699 -4 5c-8 8.66699 -17 13 -27 13z" />
    <glyph glyph-name="uacute" unicode="&#xfa;" 
d="M676 720v-9.99902c-27.333 0 -47.333 -6.33301 -60 -19c-13.333 -12.667 -20 -33 -20 -61v-440c0 -52.667 -18.5 -97.5 -55.5 -134.5s-81.833 -55.5 -134.5 -55.5h-64h-4c-62.667 0.666992 -114.667 21 -156 61c-34.667 34 -52 73.667 -52 119v450
c0 29.333 -3.66699 49 -11 59c-11.333 14 -34.333 21 -69 21v10h260v-10c-35.333 0 -58.333 -7.33301 -69 -22c-7.33301 -10 -11 -29.333 -11 -58v-450v0c0 -42 9 -79 27 -111c21.333 -38.667 48.333 -58.334 81 -59.001h4h64c50 0 92.5 17.5 127.5 52.5
s52.5 77.5 52.5 127.5v440c0 29.333 -6.33301 50 -19 62c-12 12 -32.333 18 -61 18v10h170zM451 927.001c-10 0 -18.6689 -4 -26.002 -12c-1.33301 -1.33301 -3 -3.33301 -5 -6c-8.66699 -10.667 -18 -24 -28 -40c-15.333 -24 -24 -42.333 -26 -55
c-0.666992 -6 0.5 -10.167 3.5 -12.5s7.5 -2.5 13.5 -0.5c10.667 4 24 13.833 40 29.5s29.333 30.5 40 44.5c2 1.33301 3.66699 3.33301 5 6c4.66699 7.33301 6.83398 15 6.50098 23s-3.16602 14 -8.49902 18c-4 3.33301 -9 5 -15 5z" />
    <glyph glyph-name="ucircumflex" unicode="&#xfb;" 
d="M676 720v-9.99902c-27.333 0 -47.333 -6.33301 -60 -19c-13.333 -12.667 -20 -33 -20 -61v-440c0 -52.667 -18.5 -97.5 -55.5 -134.5s-81.833 -55.5 -134.5 -55.5h-64h-4c-62.667 0.666992 -114.667 21 -156 61c-34.667 34 -52 73.667 -52 119v450
c0 29.333 -3.66699 49 -11 59c-11.333 14 -34.333 21 -69 21v10h260v-10c-35.333 0 -58.333 -7.33301 -69 -22c-7.33301 -10 -11 -29.333 -11 -58v-450v0c0 -42 9 -79 27 -111c21.333 -38.667 48.333 -58.334 81 -59.001h4h64c50 0 92.5 17.5 127.5 52.5
s52.5 77.5 52.5 127.5v440c0 29.333 -6.33301 50 -19 62c-12 12 -32.333 18 -61 18v10h170zM372 1002l-111 -182l34 -21l100 165l100 -165l34 21l-110 182h-47z" />
    <glyph glyph-name="udieresis" unicode="&#xfc;" 
d="M676 720v-9.99902c-27.333 0 -47.333 -6.33301 -60 -19c-13.333 -12.667 -20 -33 -20 -61v-440c0 -52.667 -18.5 -97.5 -55.5 -134.5s-81.833 -55.5 -134.5 -55.5h-64h-4c-62.667 0.666992 -114.667 21 -156 61c-34.667 34 -52 73.667 -52 119v450
c0 29.333 -3.66699 49 -11 59c-11.333 14 -34.333 21 -69 21v10h260v-10c-35.333 0 -58.333 -7.33301 -69 -22c-7.33301 -10 -11 -29.333 -11 -58v-450v0c0 -42 9 -79 27 -111c21.333 -38.667 48.333 -58.334 81 -59.001h4h64c50 0 92.5 17.5 127.5 52.5
s52.5 77.5 52.5 127.5v440c0 29.333 -6.33301 50 -19 62c-12 12 -32.333 18 -61 18v10h170zM314 900.001c-14 0 -25.833 -4.83301 -35.5 -14.5s-14.5 -21.5 -14.5 -35.5s4.83301 -25.833 14.5 -35.5s21.5 -14.5 35.5 -14.5s25.833 4.83301 35.5 14.5s14.5 21.5 14.5 35.5
s-4.83301 25.833 -14.5 35.5s-21.5 14.5 -35.5 14.5zM494 900.001c-14 0 -25.833 -4.83301 -35.5 -14.5s-14.5 -21.5 -14.5 -35.5s4.83301 -25.833 14.5 -35.5s21.5 -14.5 35.5 -14.5s25.833 4.83301 35.5 14.5s14.5 21.5 14.5 35.5s-4.83301 25.833 -14.5 35.5
s-21.5 14.5 -35.5 14.5z" />
    <glyph glyph-name="yacute" unicode="&#xfd;" horiz-adv-x="690" 
d="M435 928c-10 0 -19 -4.33203 -27 -12.999c-1.33301 -1.33301 -2.66602 -3 -3.99902 -5c-8.66699 -10.667 -18.334 -24.334 -29.001 -41.001c-14.667 -24 -23 -42 -25 -54c-1.33301 -6.66699 -0.5 -11 2.5 -13s7.83301 -2 14.5 0c10.667 4 24 13.833 40 29.5
s29.333 30.5 40 44.5c1.33301 1.33301 2.66602 3 3.99902 5c5.33301 7.33301 7.83301 15 7.5 23s-3.16602 14.333 -8.49902 19c-4.66699 3.33301 -9.66699 5 -15 5zM50 720.001v-10.001c26 0 46 -4 60 -12c14 -7.33301 24.333 -19 31 -35l169 -375v-198
c0 -28.667 -3.66699 -48 -11 -58c-10.667 -14.667 -33.667 -22 -69 -22v-10h80h100h80v10c-34.667 0 -57.667 7 -69 21c-7.33301 10 -11 29.667 -11 59v266l138 307c6.66699 16 17.167 27.833 31.5 35.5s34.5 11.5 60.5 11.5v10h-150v-10c23.333 0 39 -4 47 -12
c7.33301 -8 7.66602 -19 0.999023 -33l-144 -320l-143 317c-6.66699 18.667 -7 31.334 -1 38.001c6.66699 6.66699 23.334 10 50.001 10v10h-250z" />
    <glyph glyph-name="ydieresis" unicode="&#xff;" horiz-adv-x="690" 
d="M292 900c-14 0 -25.833 -4.83301 -35.5 -14.5s-14.5 -21.5 -14.5 -35.5s4.83301 -25.833 14.5 -35.5s21.5 -14.5 35.5 -14.5s25.833 4.83301 35.5 14.5s14.5 21.5 14.5 35.5s-4.83301 25.833 -14.5 35.5s-21.5 14.5 -35.5 14.5zM472 900
c-14 0 -25.833 -4.83301 -35.5 -14.5s-14.5 -21.5 -14.5 -35.5s4.83301 -25.833 14.5 -35.5s21.5 -14.5 35.5 -14.5s25.833 4.83301 35.5 14.5s14.5 21.5 14.5 35.5s-4.83301 25.833 -14.5 35.5s-21.5 14.5 -35.5 14.5zM50 720v-10.001c26 0 46 -4 60 -12
c14 -7.33301 24.333 -19 31 -35l169 -375v-198c0 -28.667 -3.66699 -48 -11 -58c-10.667 -14.667 -33.667 -22 -69 -22v-10h80h100h80v10c-34.667 0 -57.667 7 -69 21c-7.33301 10 -11 29.667 -11 59v266l138 307c6.66699 16 17.167 27.833 31.5 35.5s34.5 11.5 60.5 11.5
v10h-150v-10c23.333 0 39 -4 47 -12c7.33301 -8 7.66602 -19 0.999023 -33l-144 -320l-143 317c-6.66699 18.667 -7 31.334 -1 38.001c6.66699 6.66699 23.334 10 50.001 10v10h-250z" />
    <glyph glyph-name="OE" unicode="&#x152;" horiz-adv-x="1018" 
d="M370 720c-58 0 -111.5 -16.0029 -160.5 -48.0029s-87.833 -75.667 -116.5 -131s-43 -115.666 -43 -180.999s14.333 -125.666 43 -180.999s67.5 -99 116.5 -131s102.5 -48 160.5 -48h190h368l40 210h-10c-15.333 -75.333 -37.666 -128.333 -66.999 -159
c-26 -27.333 -62 -41 -108 -41h-223v80v260h160c38.667 0 65.667 -4.66699 81 -14c11.333 -6.66699 19 -16.667 23 -30s6 -32 6 -56h10v210h-10c0 -37.333 -5.66699 -62.666 -17 -75.999c-13.333 -16 -44 -24 -92 -24h-161v270v80h205c49.333 0 84.666 -12.333 105.999 -37
c24 -28 38.333 -82.333 43 -163h10l-12 210h-352h-190zM370 709.997l14.999 0.00195312c32.667 -0.666992 54.334 -8 65.001 -22c6.66699 -10 10 -29.333 10 -58v-540c0 -28.667 -3.33301 -48 -10 -58c-11.333 -14.667 -34.333 -22 -69 -22h-11
c-41.333 0 -78.833 15.667 -112.5 47s-59.834 73.666 -78.501 126.999s-28 112 -28 176s9.33301 122.667 28 176s44.834 95.666 78.501 126.999s71.167 47 112.5 47z" />
    <glyph glyph-name="oe" unicode="&#x153;" horiz-adv-x="1018" 
d="M370 720c-58 0 -111.5 -16.0029 -160.5 -48.0029s-87.833 -75.667 -116.5 -131s-43 -115.666 -43 -180.999s14.333 -125.666 43 -180.999s67.5 -99 116.5 -131s102.5 -48 160.5 -48h190h368l40 210h-10c-15.333 -75.333 -37.666 -128.333 -66.999 -159
c-26 -27.333 -62 -41 -108 -41h-223v80v260h160c38.667 0 65.667 -4.66699 81 -14c11.333 -6.66699 19 -16.667 23 -30s6 -32 6 -56h10v210h-10c0 -37.333 -5.66699 -62.666 -17 -75.999c-13.333 -16 -44 -24 -92 -24h-161v270v80h205c49.333 0 84.666 -12.333 105.999 -37
c24 -28 38.333 -82.333 43 -163h10l-12 210h-352h-190zM370 709.997l14.999 0.00195312c32.667 -0.666992 54.334 -8 65.001 -22c6.66699 -10 10 -29.333 10 -58v-540c0 -28.667 -3.33301 -48 -10 -58c-11.333 -14.667 -34.333 -22 -69 -22h-11
c-41.333 0 -78.833 15.667 -112.5 47s-59.834 73.666 -78.501 126.999s-28 112 -28 176s9.33301 122.667 28 176s44.834 95.666 78.501 126.999s71.167 47 112.5 47z" />
    <glyph glyph-name="Scaron" unicode="&#x160;" horiz-adv-x="555" 
d="M177 1000l-34 -21l111 -183h46l111 183l-34 21l-100 -165zM443 718c0.666992 -24.667 -1.00098 -37.999 -5.00098 -39.999c-2 -1.33301 -5.33301 -1.33301 -10 0s-13.667 4.83301 -27 10.5s-25.333 10.5 -36 14.5c-15.333 5.33301 -31.666 9 -48.999 11
c-6.66699 0 -13 0.333008 -19 1c-36 0 -71.667 -7 -107 -21c-34.667 -15.333 -62.834 -36.333 -84.501 -63s-33.167 -57.667 -34.5 -93c-1.33301 -61.333 21 -109.333 67 -144c16.667 -12 38.167 -24 64.5 -36s50.333 -22.5 72 -31.5s42.834 -19.667 63.501 -32
s37 -28.166 49 -47.499s18 -42.333 18 -69c0 -40.667 -12.667 -74.5 -38 -101.5s-57 -44.5 -95 -52.5c-26.667 -5.33301 -53.334 -5 -80.001 1s-50 17.333 -70 34c-38.667 32 -59.334 78 -62.001 138v1h-10v-200h10c0 29.333 4.66699 45.666 14 48.999
c5.33301 1.33301 14.833 -0.833984 28.5 -6.50098s32.834 -13 57.501 -22s50.334 -15.167 77.001 -18.5c52 -6 101.667 1.33301 149 22c34.667 15.333 62.834 36.333 84.501 63s33.167 57.667 34.5 93c0 79.333 -34.333 141.333 -103 186
c-16.667 10.667 -37.334 21.667 -62.001 33l-64 29c-18 8 -35.667 17.167 -53 27.5s-30.5 22.5 -39.5 36.5s-13.167 30 -12.5 48c0 62 19 107.333 57 136c31.333 24 67.5 32.167 108.5 24.5s72.833 -28.5 95.5 -62.5c15.333 -28 23 -57.333 23 -88h10l-12 170h-10z" />
    <glyph glyph-name="scaron" unicode="&#x161;" horiz-adv-x="555" 
d="M177 1000l-34 -21l111 -183h46l111 183l-34 21l-100 -165zM443 718c0.666992 -24.667 -1.00098 -37.999 -5.00098 -39.999c-2 -1.33301 -5.33301 -1.33301 -10 0s-13.667 4.83301 -27 10.5s-25.333 10.5 -36 14.5c-15.333 5.33301 -31.666 9 -48.999 11
c-6.66699 0 -13 0.333008 -19 1c-36 0 -71.667 -7 -107 -21c-34.667 -15.333 -62.834 -36.333 -84.501 -63s-33.167 -57.667 -34.5 -93c-1.33301 -61.333 21 -109.333 67 -144c16.667 -12 38.167 -24 64.5 -36s50.333 -22.5 72 -31.5s42.834 -19.667 63.501 -32
s37 -28.166 49 -47.499s18 -42.333 18 -69c0 -40.667 -12.667 -74.5 -38 -101.5s-57 -44.5 -95 -52.5c-26.667 -5.33301 -53.334 -5 -80.001 1s-50 17.333 -70 34c-38.667 32 -59.334 78 -62.001 138v1h-10v-200h10c0 29.333 4.66699 45.666 14 48.999
c5.33301 1.33301 14.833 -0.833984 28.5 -6.50098s32.834 -13 57.501 -22s50.334 -15.167 77.001 -18.5c52 -6 101.667 1.33301 149 22c34.667 15.333 62.834 36.333 84.501 63s33.167 57.667 34.5 93c0 79.333 -34.333 141.333 -103 186
c-16.667 10.667 -37.334 21.667 -62.001 33l-64 29c-18 8 -35.667 17.167 -53 27.5s-30.5 22.5 -39.5 36.5s-13.167 30 -12.5 48c0 62 19 107.333 57 136c31.333 24 67.5 32.167 108.5 24.5s72.833 -28.5 95.5 -62.5c15.333 -28 23 -57.333 23 -88h10l-12 170h-10z" />
    <glyph glyph-name="Zcaron" unicode="&#x17d;" horiz-adv-x="560" 
d="M178 1003l-34 -21l111 -183h46l111 183l-34 21l-100 -165zM62 720l-12 -210h10c3.33301 53.333 10.666 94.5 21.999 123.5s26.833 49 46.5 60s46.834 16.5 81.501 16.5h200l-360 -700v-10h448l12 210h-10c-3.33301 -53.333 -10.666 -94.5 -21.999 -123.5
s-26.833 -49 -46.5 -60s-46.834 -16.5 -81.501 -16.5h-190l350 700v10h-448z" />
    <glyph glyph-name="zcaron" unicode="&#x17e;" horiz-adv-x="560" 
d="M178 1003l-34 -21l111 -183h46l111 183l-34 21l-100 -165zM62 720l-12 -210h10c3.33301 53.333 10.666 94.5 21.999 123.5s26.833 49 46.5 60s46.834 16.5 81.501 16.5h200l-360 -700v-10h448l12 210h-10c-3.33301 -53.333 -10.666 -94.5 -21.999 -123.5
s-26.833 -49 -46.5 -60s-46.834 -16.5 -81.501 -16.5h-190l350 700v10h-448z" />
    <glyph glyph-name="NameMe.260" unicode="&#x2018;" horiz-adv-x="155" 
d="M77.5 722c-7 0 -13.166 -2.99902 -18.499 -8.99902s-8.33301 -13.333 -9 -22v-7c0 -53.333 5.66699 -89.333 17 -108c3.33301 -6 7 -9 11 -9c3.33301 0 6.66602 3 9.99902 9c6 10.667 10.667 30 14 58c2 19.333 3 35.666 3 48.999v7c-0.666992 9.33301 -3.66699 17 -9 23
s-11.5 9 -18.5 9z" />
    <glyph glyph-name="NameMe.258" unicode="&#x2019;" horiz-adv-x="155" 
d="M77.5 722c-7 0 -13.166 -2.99902 -18.499 -8.99902s-8.33301 -13.333 -9 -22v-7c0 -53.333 5.66699 -89.333 17 -108c3.33301 -6 7 -9 11 -9c3.33301 0 6.66602 3 9.99902 9c6 10.667 10.667 30 14 58c2 19.333 3 35.666 3 48.999v7c-0.666992 9.33301 -3.66699 17 -9 23
s-11.5 9 -18.5 9z" />
    <glyph glyph-name="NameMe.259" unicode="&#x201c;" horiz-adv-x="250" 
d="M77.5 724c-7 0 -13.167 -3 -18.5 -9s-8.33301 -13.667 -9 -23v-7c0 -52.667 5.66699 -88.667 17 -108c3.33301 -5.33301 6.83301 -8 10.5 -8s7.16699 2.66699 10.5 8c6 11.333 10.667 31 14 59c2 18.667 3 35 3 49v7c-0.666992 8.66699 -3.66699 16.167 -9 22.5
s-11.5 9.5 -18.5 9.5zM172.5 724c-7 0 -13.167 -3 -18.5 -9s-8.33301 -13.667 -9 -23v-7c0 -52.667 5.66699 -88.667 17 -108c3.33301 -5.33301 6.83301 -8 10.5 -8s7.16699 2.66699 10.5 8c6 11.333 10.667 31 14 59c2 18.667 3 35 3 49v7
c-0.666992 8.66699 -3.66699 16.167 -9 22.5s-11.5 9.5 -18.5 9.5z" />
    <glyph glyph-name="NameMe.257" unicode="&#x201d;" horiz-adv-x="250" 
d="M77.5 724c-7 0 -13.167 -3 -18.5 -9s-8.33301 -13.667 -9 -23v-7c0 -52.667 5.66699 -88.667 17 -108c3.33301 -5.33301 6.83301 -8 10.5 -8s7.16699 2.66699 10.5 8c6 11.333 10.667 31 14 59c2 18.667 3 35 3 49v7c-0.666992 8.66699 -3.66699 16.167 -9 22.5
s-11.5 9.5 -18.5 9.5zM172.5 724c-7 0 -13.167 -3 -18.5 -9s-8.33301 -13.667 -9 -23v-7c0 -52.667 5.66699 -88.667 17 -108c3.33301 -5.33301 6.83301 -8 10.5 -8s7.16699 2.66699 10.5 8c6 11.333 10.667 31 14 59c2 18.667 3 35 3 49v7
c-0.666992 8.66699 -3.66699 16.167 -9 22.5s-11.5 9.5 -18.5 9.5z" />
    <glyph glyph-name="NameMe.256" unicode="&#x2026;" horiz-adv-x="520" 
d="M100 100c-14 0 -25.833 -4.83301 -35.5 -14.5s-14.5 -21.5 -14.5 -35.5s4.83301 -25.833 14.5 -35.5s21.5 -14.5 35.5 -14.5s25.833 4.83301 35.5 14.5s14.5 21.5 14.5 35.5s-4.83301 25.833 -14.5 35.5s-21.5 14.5 -35.5 14.5zM260 100
c-14 0 -25.833 -4.83301 -35.5 -14.5s-14.5 -21.5 -14.5 -35.5s4.83301 -25.833 14.5 -35.5s21.5 -14.5 35.5 -14.5s25.833 4.83301 35.5 14.5s14.5 21.5 14.5 35.5s-4.83301 25.833 -14.5 35.5s-21.5 14.5 -35.5 14.5zM420 100c-14 0 -25.833 -4.83301 -35.5 -14.5
s-14.5 -21.5 -14.5 -35.5s4.83301 -25.833 14.5 -35.5s21.5 -14.5 35.5 -14.5s25.833 4.83301 35.5 14.5s14.5 21.5 14.5 35.5s-4.83301 25.833 -14.5 35.5s-21.5 14.5 -35.5 14.5z" />
    <glyph glyph-name="Euro" unicode="&#x20ac;" horiz-adv-x="778" 
d="M474 720c-81.333 0 -153.833 -24.334 -217.5 -73.001s-106.5 -111 -128.5 -187h-78v-20h73c-6 -26 -9 -52.667 -9 -80s3 -54 9 -80h-73v-20h78c22 -76 64.833 -138.333 128.5 -187s136.167 -73 217.5 -73c80 0 142.333 18 187 54c46 37.333 68.667 89.333 68 156h-10
c0 -63.333 -22.667 -112.666 -68 -147.999c-44.667 -34.667 -103.667 -52 -177 -52c-58.667 0 -110.834 23.333 -156.501 70s-76.5 106.667 -92.5 180h265v20h-269c-4.66699 26 -7 52.667 -7 80s2.33301 54 7 80h269v20h-265c16 73.333 46.833 133.333 92.5 180
s97.834 70 156.501 70c30.667 0 59.667 -3.5 87 -10.5s53.166 -18 77.499 -33s43.833 -35.833 58.5 -62.5s22 -58 22 -94h10v210h-10c0 -15.333 -2.66699 -26 -8 -32s-13.666 -8.66699 -24.999 -8c-7.33301 0.666992 -35 7.5 -83 20.5s-91 19.5 -129 19.5z" />
    <glyph glyph-name=".null" horiz-adv-x="0" 
 />
    <glyph glyph-name="nonmarkingreturn" horiz-adv-x="333" 
 />
    </font>
</defs>
</svg>
